<mxfile host="65bd71144e">
    <diagram id="qyiRj1xlFIZHc5JAkEzK" name="ページ1">
        <mxGraphModel dx="5841" dy="-318" grid="1" gridSize="10" guides="1" tooltips="1" connect="1" arrows="1" fold="1" page="1" pageScale="1" pageWidth="827" pageHeight="1169" math="0" shadow="0">
            <root>
                <mxCell id="0"/>
                <mxCell id="1" parent="0"/>
                <mxCell id="2" value="最近のお買いもの" style="fillColor=none;strokeColor=none;align=center;spacing=20;fontSize=24;shadow=0;labelBackgroundColor=none;fontColor=#000000;" vertex="1" parent="1">
                    <mxGeometry x="-498" y="3251.500000000001" width="220" height="40" as="geometry"/>
                </mxCell>
                <mxCell id="3" value="" style="rounded=1;whiteSpace=wrap;html=1;arcSize=3;fontColor=default;" vertex="1" parent="1">
                    <mxGeometry x="-2400" y="2480" width="1520" height="1080" as="geometry"/>
                </mxCell>
                <mxCell id="4" value="" style="line;strokeWidth=1;html=1;strokeColor=#000000;rounded=1;" vertex="1" parent="1">
                    <mxGeometry x="-2400" y="2519" width="1520" height="10" as="geometry"/>
                </mxCell>
                <mxCell id="5" value="" style="verticalLabelPosition=bottom;labelBackgroundColor=default;verticalAlign=top;shadow=0;dashed=0;strokeWidth=2;shape=mxgraph.ios7.misc.add;fillColor=#00DD00;strokeColor=none;sketch=0;fontColor=default;html=1;rounded=1;" vertex="1" parent="1">
                    <mxGeometry x="-2329" y="2496" width="12" height="12" as="geometry"/>
                </mxCell>
                <mxCell id="6" value="" style="html=1;verticalLabelPosition=bottom;labelBackgroundColor=#ffffff;verticalAlign=top;shadow=0;dashed=0;strokeWidth=2;shape=mxgraph.ios7.misc.delete;fillColor=#ff0000;strokeColor=none;sketch=0;rounded=1;" vertex="1" parent="1">
                    <mxGeometry x="-2372" y="2496" width="11" height="12" as="geometry"/>
                </mxCell>
                <mxCell id="7" value="" style="html=1;verticalLabelPosition=bottom;labelBackgroundColor=#ffffff;verticalAlign=top;shadow=0;dashed=0;strokeWidth=2;shape=mxgraph.ios7.misc.delete;fillColor=#FFFF00;strokeColor=none;sketch=0;rounded=1;" vertex="1" parent="1">
                    <mxGeometry x="-2351" y="2496" width="12" height="12" as="geometry"/>
                </mxCell>
                <mxCell id="8" value="&lt;font style=&quot;font-size: 16px&quot;&gt;draw.io&lt;/font&gt;" style="html=1;strokeWidth=1;shadow=0;dashed=0;shape=mxgraph.ios7ui.url;fillColor=#e0e0e0;strokeColor=#c0c0c0;buttonText=;strokeColor2=#222222;fontColor=#222222;fontSize=8;spacingTop=2;align=center;rounded=1;" vertex="1" parent="1">
                    <mxGeometry x="-1886.56" y="2489" width="493.13" height="26" as="geometry"/>
                </mxCell>
                <mxCell id="9" value="&lt;font style=&quot;font-size: 56px;&quot;&gt;LOGO&lt;/font&gt;" style="html=1;shadow=0;dashed=0;shape=mxgraph.bootstrap.rrect;rSize=5;strokeColor=#FFFFFF;strokeWidth=3;fillColor=none;fontColor=#00FF00;whiteSpace=wrap;align=center;verticalAlign=middle;spacingLeft=0;fontStyle=0;fontSize=56;spacing=5;rounded=1;" vertex="1" parent="1">
                    <mxGeometry x="-2329" y="2575" width="240" height="82.5" as="geometry"/>
                </mxCell>
                <mxCell id="10" value="" style="html=1;verticalLabelPosition=bottom;align=center;labelBackgroundColor=#ffffff;verticalAlign=top;strokeWidth=2;strokeColor=#0080F0;shadow=0;dashed=0;shape=mxgraph.ios7.icons.user;fontColor=#00FF00;fillColor=#E6E6E6;" vertex="1" parent="1">
                    <mxGeometry x="-1060.01" y="2578.75" width="80" height="78.75" as="geometry"/>
                </mxCell>
                <mxCell id="11" value="Footer" style="rounded=0;whiteSpace=wrap;html=1;shadow=0;fontSize=72;fontColor=#00CC00;strokeWidth=2;fillColor=#FFFFFF;strokeColor=none;" vertex="1" parent="1">
                    <mxGeometry x="-2400" y="3512.25" width="1519" height="173" as="geometry"/>
                </mxCell>
                <mxCell id="12" value="" style="endArrow=none;html=1;fontSize=16;fontColor=#000000;entryX=1;entryY=0.959;entryDx=0;entryDy=0;entryPerimeter=0;" edge="1" parent="1" target="3">
                    <mxGeometry width="50" height="50" relative="1" as="geometry">
                        <mxPoint x="-880" y="3686.25" as="sourcePoint"/>
                        <mxPoint x="-880" y="3533.25" as="targetPoint"/>
                    </mxGeometry>
                </mxCell>
                <mxCell id="13" value="" style="endArrow=none;html=1;fontSize=16;fontColor=#000000;entryX=0;entryY=0.951;entryDx=0;entryDy=0;entryPerimeter=0;" edge="1" parent="1" target="3">
                    <mxGeometry width="50" height="50" relative="1" as="geometry">
                        <mxPoint x="-2400" y="3685.250000000001" as="sourcePoint"/>
                        <mxPoint x="-2400.0000000000005" y="3525.72" as="targetPoint"/>
                    </mxGeometry>
                </mxCell>
                <mxCell id="14" value="" style="html=1;shadow=0;dashed=0;shape=mxgraph.bootstrap.rrect;rSize=5;fillColor=none;strokeColor=#999999;labelBackgroundColor=none;fontSize=16;fontColor=#000000;" vertex="1" parent="1">
                    <mxGeometry x="-2040" y="2927" width="800" height="340" as="geometry"/>
                </mxCell>
                <mxCell id="15" value="今日の日付" style="html=1;shadow=0;dashed=0;shape=mxgraph.bootstrap.rrect;rSize=5;fillColor=default;strokeColor=#808080;align=left;spacing=15;fontSize=16;fontColor=#6C767D;labelBackgroundColor=none;" vertex="1" parent="14">
                    <mxGeometry width="590" height="80" relative="1" as="geometry">
                        <mxPoint x="45" y="30" as="offset"/>
                    </mxGeometry>
                </mxCell>
                <mxCell id="16" value="カテゴリー選択" style="html=1;shadow=0;dashed=0;shape=mxgraph.bootstrap.rrect;rSize=5;strokeColor=#808080;strokeWidth=1;fillColor=#ffffff;fontColor=#777777;whiteSpace=wrap;align=left;verticalAlign=middle;fontStyle=0;fontSize=16;spacing=20;labelBackgroundColor=none;" vertex="1" parent="14">
                    <mxGeometry x="45.71" y="136.83" width="344.29" height="80" as="geometry"/>
                </mxCell>
                <mxCell id="17" value="" style="shape=triangle;direction=south;fillColor=#495057;strokeColor=none;perimeter=none;shadow=0;labelBackgroundColor=none;fontSize=16;fontColor=#000000;" vertex="1" parent="16">
                    <mxGeometry x="1" y="0.5" width="10" height="5" relative="1" as="geometry">
                        <mxPoint x="-17" y="-2.5" as="offset"/>
                    </mxGeometry>
                </mxCell>
                <mxCell id="18" value="🗓" style="html=1;shadow=1;dashed=0;shape=mxgraph.bootstrap.rrect;rSize=5;strokeColor=#808080;strokeWidth=1;fillColor=#E6E6E6;fontColor=#343A40;whiteSpace=wrap;align=center;verticalAlign=middle;spacingLeft=0;fontStyle=0;fontSize=32;spacing=5;labelBackgroundColor=none;" vertex="1" parent="14">
                    <mxGeometry x="662.8556962025317" y="30.000975609756097" width="81.0126582278481" height="80" as="geometry"/>
                </mxCell>
                <mxCell id="19" value="金額" style="html=1;shadow=0;dashed=0;shape=mxgraph.bootstrap.rrect;rSize=5;fillColor=default;strokeColor=#808080;align=left;spacing=15;fontSize=16;fontColor=#6C767D;labelBackgroundColor=none;" vertex="1" parent="14">
                    <mxGeometry width="340" height="80" relative="1" as="geometry">
                        <mxPoint x="404" y="137" as="offset"/>
                    </mxGeometry>
                </mxCell>
                <mxCell id="20" value="Success" style="html=1;shadow=0;dashed=0;shape=mxgraph.bootstrap.rrect;rSize=5;strokeColor=none;strokeWidth=1;fillColor=#33A64C;fontColor=#FFFFFF;whiteSpace=wrap;align=center;verticalAlign=middle;spacingLeft=0;fontStyle=0;fontSize=16;spacing=5;labelBackgroundColor=none;" vertex="1" parent="14">
                    <mxGeometry x="280" y="270" width="240" height="40" as="geometry"/>
                </mxCell>
                <mxCell id="21" value="" style="html=1;shadow=0;dashed=0;shape=mxgraph.bootstrap.rrect;rSize=5;strokeColor=#DFDFDF;html=1;whiteSpace=wrap;fillColor=#ffffff;fontColor=#000000;verticalAlign=bottom;align=right;spacing=20;spacingBottom=50;fontSize=14;labelBackgroundColor=none;strokeWidth=3;direction=north;" vertex="1" parent="1">
                    <mxGeometry x="-2039.7399999999998" y="2730" width="800" height="160" as="geometry"/>
                </mxCell>
                <mxCell id="22" value="Image cap" style="html=1;shadow=0;dashed=0;shape=mxgraph.bootstrap.topButton;rSize=5;perimeter=none;whiteSpace=wrap;fillColor=#E6E6E6;strokeColor=#DFDFDF;fontColor=#DEE2E6;resizeWidth=1;fontSize=18;labelBackgroundColor=none;" vertex="1" parent="21">
                    <mxGeometry width="160" height="160" relative="1" as="geometry">
                        <mxPoint y="-2" as="offset"/>
                    </mxGeometry>
                </mxCell>
                <mxCell id="23" value="&lt;font color=&quot;#000000&quot;&gt;&lt;font style=&quot;font-size: 40px&quot;&gt;¥ 300&lt;br&gt;&lt;/font&gt;&lt;/font&gt;&lt;span style=&quot;color: rgb(0 , 0 , 0)&quot;&gt;お菓子(ポテチ、コーラ...etc)&lt;/span&gt;" style="rounded=0;whiteSpace=wrap;html=1;shadow=1;labelBackgroundColor=none;fontSize=20;fontColor=#00FF00;strokeColor=none;strokeWidth=3;fillColor=none;gradientColor=none;align=left;verticalAlign=middle;" vertex="1" parent="21">
                    <mxGeometry x="170" width="470" height="160" as="geometry"/>
                </mxCell>
                <mxCell id="24" value="" style="shape=image;verticalLabelPosition=bottom;labelBackgroundColor=#ffffff;verticalAlign=top;aspect=fixed;imageAspect=0;image=data:image/png,iVBORw0KGgoAAAANSUhEUgAAAgAAAAIACAYAAAD0eNT6AAAABHNCSVQICAgIfAhkiAAAAAlwSFlzAAAOxAAADsQBlSsOGwAAABl0RVh0U29mdHdhcmUAd3d3Lmlua3NjYXBlLm9yZ5vuPBoAACAASURBVHic7N15nFxVmTfw33PuvbV0V++drZPupLMRCMgixA0HGMcNdEZAxBUDAs6QRNQZnRmZ0TjvO87o64wboISwqKgI4ui4omgAFUVBFJKwZCVrJ53eu9Z773nePzqBTqc76a6uqnOq6vl+Ps5o0n3Pk6S773PPPed3ACGEEEIIIYQQQgghhBBCCCGEEEIIIYQQQgghhBBCCCGEEEIIIYQQQgghhBBCCCGEEEIIIYQQQgghhBBCCCGEEEIIIYQQQgghhBBCCCGEEEKMRaYLEMI2g3sebYko/V4GXkrATNP1CGE37bD24xwMz+Iw22C6mqMwaXJogMl9uIaDD1Pnxf2mS7KJNABCjJLZ/+hFIL4LzI2maxGi3HBuCGGuF2A2XcoxSLk+qdp31iy88Duma7GFNABCHJbb9+jZmvSvAURN1yJEudK5Qehsr+kyxkdKc7T29LqON200XYoNlOkChLCFhv4PyM1fiGlRkXqQ8kyXMT7WSvnhV02XYQtpAIQAwD2/qwfhAtN1CFEJyI2bLmFinDvNdAm2kAZACADZTDAHgGO6DiEqArmmK5gQ69DS6YnSkwZACACkIvb+xBKi7Ni8vMy+BYqmSAMghBBCVCFpAIQQQogqJA2AEEIIUYWkARBCCCGqkDQAQgghRBWSBkAIIYSoQtIACCGEEFVIGgAhhBCiCkkDIIQQQlQhaQCEEEKIKiQNgBBCCFGFpAEQQgghqpA0AEIIIUQVkgZACCGEqELSAAghhBBVSBoAIYQQogpJAyCEEEJUIWkAhBBCiCokDYAQQghRhaQBEEIIIaqQNABCCCFEFZIGQAghhKhC0gAIIYQQVUgaACGEEKIKSQMghBBCVCFpAIQQQogqJA2AEEIIUYWkARBCCCGqkDQAQgghRBWSBkAIIYSoQtIACCGEEFVIGgAhhBCiCkkDIIQQQlQh13QBNuC1a9WeroE52vcXMJz5THomgZo1o4WAZlJwwIgDiAEAEzQBAyOfjAEm9EKjB4RuBu1hCp5XfnJX5513Zkz+uYQQQoiJVF0DsOuq1W0huSuA8CUgWg7CqTv39C4B4IEUAAZAI/+XRj6HecxFeOSjRv9vHP5YAoPYAdx67Lh6zW4Am4noKQZvCjU9tqi9eTOtXauL+ocUQgghToBMF1Bs265ZtdRh57UgnMfMLweo3WhBhEFm/IGIfsOsH+hV2d+dvW6db7Qmga88MHSKF9HfMV2HEJXAz2Qa/UyqxXQd41FEvOrNC2Km67BBxTUAW9asiXppeg2Aixl4HYAO0zUdD+WCZDg41ANX/YIp/NTie+/aarqmavRvP80u19rZaLoOISpBz4DGvu6xU6f2uO8D0Yq79+WjIl4BbFi71u3Y2/cGxfwOpOkiBjeYrmmyOOLWUkOiVh/qvRKar9z61+/sgxf5IbyaGxbfffNu0/UJIYSoTGXdAOy4dvUysLoSe3rfA2DOyK/a23VOhDwPakYrdE8v4PtN8P33AKn3bHvLu3bDjXx5IQ1/hu69NzRdpxBCiMpRdg0Ab1jr7ri7+wIVOh9gjYtQIa8xyHXgtDYj7OkF/AAAg7O5dmRzn9rmOp/c9tYrfug0x1YtWLduv+lahRBClL+yaQD23XJtjXK8L+1/+tBbKHSay+85fxIcB86MFoSHeoHcqHWBQehxkL44SGffsvWSK34H5msX/8/X5X21EEKIvFnfAOy75doaJxa52Z3J74KCO/SDCs8uIgWnpXmkCfDHbA7QmpBOvwKgp7Zd+p4/u5HYu+Z/69ZNZgoVQghRzqy9mzKvVftvX/XZSLvX783n91IcbuZxBa6GaB2l4LQ2g9yJ+jMGpzKn+4MDG7dfcsVvn3n7VW0lrU8IIUTZs7IB2H/z6it7vt89EF2Iv1c18AAg2EvIba+I1/2ToxRUazPgOBN/jGbodPrl7nBq9/a3XnEnX3bZcT5YCCGEeJFVDUDXras7u7+1amP0ZL5dNSJx5Nc5BDKPVdHN/wjHgWpuAtEJ/uxhqHQy/d5tOa9/6+Xve3tpihNCCFHOrGkA9n9lzWe8ubzVmYPlY9f1554lhENV2AAAoIgHam6a3Afn/ASGBr+17ZJ3P7714vfMLG5lQgghypnxBuDALdcu6r53zfPRZfojVHNsPTpLyG40XqZRFItC1ddN7oMZ4HT2LATBnu1vv+p9xa1MCCFEuTJ6Z917y+qPuh3es84MPWFcb/ZJAudKWZWdqC4Bik8hvjoIPD04vH7rJVf8evdlH4oXrzIhhBDlyEgDwF9cEz3w9dW/ji/lT1McEy5c00mCv7U6p/7Ho5oagAl3BoyDGUinX5XLHdy38/IrzypeZUIIIcpNyRuA7htXLT3Upvd57fyqE2X45TYTWAJwX0QKqqkRUw0/5FyuMRhO/WHb5SuvL05hQgghyk1JG4ADX17zLurEZqcVzSf6WM4AWXn6PwZFPFBD4sQfOJbWigdTn9926Xu/WfiqhBBClJuSNQD71636pLdUf13VTjzlP1r2aQXI0/+4VCIBikby+EwGp1Lv2Hbxu55+RNYFCCFEVStJA9C1fvXdkSX4OJzJzV2zBvxt8vR/PNTUAJwoH2ACnMktm+kf3LnlyitnFLgsIYQQZaLoDcDBu1b9MrKYL5/KvSp4nqCrIfJ3GshxoeryeBVwRDY3k3qz23dednVn4aoSQghRLorWAPBaqO671jzmzsMFU/3cnLz7n5xELcjz8v/8nJ8IMsnNWy9/36mFK0oIIUQ5KEoDwGuhDi1Z85QzT790qp+rB4HgoDQAk0FEoMaG6V0kCGJIJR/fcdnKMwpTlRBCiHJQlAbgwKJVjzpz9Sn5fG5uFwFc6IoqF0W8qQUEjScII2Em86jMBAghRPUoeANw4GtrfhNpx9n5fn6wq7pjf/NB9fV5Lwh8QRBGKJX6/c73yJoAIYSoBgW923Z9dfWPvA79ynw/Xw8DYW8hK6oO5Dqg2pppX4eDIB4Opp7Y8ZaVjQUoSwghhMUK1gDsW7/6vyMdfOF0ruHvkXf/+aK6BEDT/+fknN+g4T/FFhwUJYQQongK8kP+wFfWXBFdwB+aYkLtMUJZ/Jc3UqogswAAwNncvO0XX/FQQS4mhBDCStNuALpuXfNydwHfQVM4o2ZcLA3AdKlELWi6awEO40z63K2XrvxyQS5WBrSOyNJTIQqE5bupLEyrAdh3y7U1Tqv+GcV42o2EHoCE/0yXo4ACzQIAAKdTf7v9be99W8EuaLdB0wUIUSm0Nl3BxJSSfWZHTOvG7dRFH3WaUFeIQoJeeeVcCKqADQAxQ6ezd219+5XtBbuopeqH0WO6BiEqRajtnc11FQLTNdgi77tu122rv+i16YLtG9cDhbpSlXNdIDbNXIDRgtCjTO6Rwl3QTh9+G6UB9JmuQ4hK4Af2PmQ7DlKma7BFXg3Avps/8FKvnVcXshDdX8irVTcnUbhZAGBkUeC2S9+7vqAXtdPvTRcgRCVIW/w6N+LSs6ZrsMWUGwBeC+XO1vdTZLpr/o8WDtg7ZVR2olGQO6lTlycvnb5q21vf95rCXtQuRPRb0zUIUe78gJGzeQbA5YdN12CLKa/dPzh/9T1eM7cUuhCdLvQVKwABKsFQjYDbAFACUDUaFCWQxy+m/+mRvz+dBjgNcIoQzKhFsGMYeqAwq3GYmSiXuo+BZgIsXuKTP+Lwfxlqrek6hChnQ0nTFUyMCNB+5EbTddhiSo/du2+8/mW1y4Lfwi3s0z/ngMF7CvzEWqZULcObBzizGe5MBkXzuw4HjKA7DYDAWUZ4IETuiSzC6TYENbVfX3zfnVdM7yL2Wvvj8AmA5WAkIfK0bU+IlKWvABJx7PjqNdGFpuuwxZReAURnht8r9M0fANjSL5ZSoSgQOZmRuFCj7mKN2DkaXnv+N38AIJdAHgEYuY7b4aDmLTWoe1cd4n8RB2J5/jNmUu+u6JMDGbeYLkGIcpXJwtqbPwDEIvRZ0zXYZNKvALpuWf0f7kyeXYwiOFeMq9rPmcGILGVEOhgowgQIxVyw77/4CwzAYbgLHNR1JsBDjMwjGQRdU9gVo5lC3/8fAJV5aFCNWo908AGATjZdihDlZn+PvW8Ha+Oq65b3ejebrsMmk5oB2PLFNfVeB/6+aFXYu16kKJxWoOYCjcTrNSKdxbn5A4ATO86FmUEJIP66GOour4PbNoXlINncgm1vXXnd9Cu0z9oLKADoY6brEKLcDKUYwyk7f5gTAbUeXW26DttMqgGoq+NvUpy9YhXBXB07AFQto+Z8jcQbQnhzS/CN4iqQM4m/2yij5q9iSFySgIpP7q0Q57KfrtQDg9Ze6H4PwP+YrkOIcqEZ2Ndt580fAOpr6NdfXun+yHQdtjnhD/CuW1d3enOnd8rfCdk7a1QYBESXMRJv1vDmlfabhKKTm15gjOwyqH1bLWJnTyJIyA8S29+28r+mV529POWsggQDCTEpB3oYOd/OBiDiIVff7L3ZdB02OmEDQHHcXeg9/8eMUbS5BfNUAqh9Q4jY2RrTPjApn/FjUxyUGd4pLhKX10HVHr954HRm1YaVKwsYO2iPG95A+wH8g+k6hLBdKgP09Nv7FFdf617/+YtJoubGcdwG4OBn3r/Em83nFL2KCj2IzZvHSFwYwi14asLkUYSmuNnz8OdFGbVvrYHXeZzuLAi9jiH93/lXZ7e1F7q3A7jfdB1C2EozsPdgaO0yroYEPX7LFc5XTNdhq+M2AHq2e2cxtv2NRZEKWwNAQPR0Rs15GhQxXQuB3Dxf1TMj9hcxxFYc5yE/l7uK1641MLdRGi477wcwZLoOIWx0sJeRsXQXl+sgqGvxLjJdh80mvDPsvem6dm8OXlGSIiLFWwlfcgTEX8aInabzevIuBhWZxl8uM7xlLmreWDv+bwdhdOtTOz6T/wB2+5eL6HnZFSDEsdJZ4JDFU/8NdbjhC39DB0zXYbMJGwCnVt1MXoluYYcjb8sdKaDmLzQii+36piBv+ov1nRmExJvHbwLI9yt7e83v1c0AJD9ciMP4yNS/pT+262qwed0V0Yp9MCmUce8MvGGt683E60tZiFNXytGKgIDYy0YS/KxTgAYAAKiJUPumcZoA36/betnKlQUZxEJr15IGO9cAkBMrhADQ3aeRzpquYnyuS6GDSHF3rlWIce8MB7b0fIJqirfvf9xCGko5WuHFz2REFll488dILHCh5nJUM437OkD5/scLM4Kd1l5EzxHRJ0zXIYRp2RzjYJ+dP+sAoC7B/3nb1fS86TrKwbgNgNOkry11IU6rvV9QJxJZzIicYte0/1h5LwQchzODEHtl/Khf07lc5873XF2Z8cCH8aPqv0B4xHQdQpi096C2duo/Ece29VdE/8V0HeXimLvC7pv/7iVOK2aWuhB3hqVfUSfgNDHi59h98wcKsw5gNG+JC2/RqC0ODIQp/98LOohl1q4l7YTO1QAsnfwUorgO9WskLT3sx3Wgo16kpK+uy90xdwUv7nzKxOp1io2E5pQTcoGa83RZ7GAo5AwAgJEtgudGoRIvfrFwkKv4tK1/fRM9TUT/YboOIUot5zMO9Nr7oFafwH+vW0nbTNdRTo65Kzgt/BoThQAoeUzudMVO12XTtJAqQlfHfPSiwFyQ2H75Va8r/EB24Zj6d4CeMF2HEKXCAPZ2M7Slk501Mey59b3Rj5iuo9wc1QDsW3/dG5x6GIt2dcuoAXCaGN5J5VMv3CJN60SA+Ctf/JLhIFe8UyMtsfYCCsDhVQD8E36wEBWgb9Dek/4ch7k2hjearqMcHdUAOI76oKlCAMCZyaCoyQomL75Cg8roLLxJnQqYJ3eJB5U4/Jfhh68q2kAWWXtR5E8AV2wMshBH+AGj65Clj/4AGmvVV75yRXSj6TrK0dENQCMb/eFNCoh02tlljua2MZwZpquYIircVsBjMCP+upqR/+oHtTvetfLlRRrJKs1wPwHwZtN1CFFM+7oZoaX3/5oYda9bGbnOdB3l6oUGYOdNHzxZNcL4G23PshS98cROt79JOQZhpAkoEpUA3IUj0RFhBlXxDfmBCymrFP4WsPYsFCGmpX+IMZi088tbOeBYDSTrfxpeaABi8fA6G7LrnUa7twQ6MwCnxd76joeK2AAAQPzlI2sBKPQvKOpAFvn4G7xfAfia6TqEKDStga4ee3/W1deoH9767sgfTNdRzl5oAFRMW7N6O3qqvV90tuX8T0mx1yy4DHe+C/b9uXzZZabPQSwdx/koADlvXFSUrh6GH9j5szjiItve6r7ddB3l7oVbgtNI1qS4uW0Mp9l0Fccij+HNt/MbYlKKPAMAALEVcUAzbUf9W4s+mCXWvp4OEuj/mq5DiELJ5Bi9A/Y+7CTq8Im1b6aU6TrKnQKAPeuuO6PU2f/HRUDsDPu++Nw5I+E/5aoUb3hUnKFaHZAO/qYEw1mD4+omAHtN1yFEIRzsZWsXtsQjNHjre6KfNl1HJVAA4JK63HQhY7ltDHeuXV+C7my76pmqUlTPAOIrYkAYnl2C4ayx9gLKgEiOHxVlL5MDBobt/VlXU6PlUK4CGXkFEMGrDdcxrvhL2aqYXWeO6QqmpwRvAAAATquC9sP20oxmkZhaB+CQ6TKEmI7uXvtmX4+IRWlo3RWxz5uuo1IoAFAJPsl0IeNR9YzYS+z4YqQI4CTs7Yono1QneDEYbgd5m999bZm3TFOz9gLKgHm96TqEyFcQMgYs3fYHADUxdafpGiqJAgCnBk2mC5lI9BSGY8G2QFXHpXmJXkSlLD+6PIJIzrdmZ0nJaPfLAELTZQiRj54BtvaoX1dBe8POx0zXUUnUzls+OIdiNk20j0FAzbkaytgJBSOcBku/K6aAS/idrVocKA6sfLVUTGvfTLtA+LnpOoSYKgbQN2i6ionVxOkPN6+iYdN1VBIV1eHrbX+yVbVA/Fxt9gnccANSECXtYTTceqeqFgIeQRr3mK5BiKlKZ2Dtvn8AiETUF0zXUGkURfmlpouYDHc2I3a2uS9OVcbb/44o5QwAAKiFWFjSAS3BOed/AGRN1yHEVNi88j/ikX/Le9xvma6j0ihysMR0EZMVPUmbWxRo70uSSaOwtN/gTquqKemAllh7MfUDeNB0HUJMha2Z/wAQjeJPpmuoRAoOt5kuYiqiL2FETzHwhRpa/p7kRHTpgz1UTSW0TfmiX5quQIjJyvmMnG9vA+A6/D3TNVQiRR5aTBcxVbGzNGJnlnYmgLP2fnNMii59/eQBG1aurITVE1PHoTQAomwMWxyqSwQ0UkS21xaBoqj5I4DzEV3OiL9Cg4p9wM1hOlPeMwBsYmMaAwuZFxkY2bhTkt4TACxeUy3Ei4Yz9j7gxDwa/OwVdNB0HZVIQVHUdBH5iixi1L5eg+LF/+LVA2XeAASlXzvBYGC+e27JB7bA295GIRh/Nl2HEJORyZiuYGKeRztM11CplHK5rNe3Oy2MujdrRJYUtwkIB1DW8S5c4gWAR0QSdLqRgW1A0gAI+2kNZIv0/l9BY1b0IGrd/N8xOIplAWCRuHCLfkp80VEEiL9Mw51DyDxO0MkiPK0zEPaSFamEeQnN7J5gt7wWmRYU48+2Z2wIkckV57onJ7bgqvZvotEbgIbCr3pfjm/tvQQhT+2W4yo8XJwKhQu3cn5EeR0Mr42R2UzIPU1gv7B/NH/PBA0AAzpF0CkAh5+0yQEoSqAYgyIFLSMvbGiFL3lcZ2RgGzi8E7pivr1EhcoVIfyn3h3GdfPvQMwZebegoHFe8yMAgLv2vHVK13I975GCFygAAGU9/T8uF4i9hBFdxsg9S8g+q8AFer/lP0+InQlwDgj2EoKDhLCbRl4PHOd7iOIMp4ngtGp4bQynBaVNNdQMNjQDAFaemYEtQO6esn5vJKpCMdL/Tqvb/MLNf7Tzmh/BjmQHftO3YlLXIQJufAeewzsLXaEAKrEBOIwiQPQ0RmR5iGAfIbeNEO4ncJDn9dyR9QbpRxzknseUfq5zmhCkgWCfQvZJgKJAZIGGt3DkmsWmfXMnKmqu3iyAWmB30nQRQpxAEBAKnRM+N75vwt9797z7sCczB8+nT3xiuOeSDyI7joStQKpyXgCMjxTgzWPUnqdRd1mI2teOpAl6HQyVwPgJfwSoGsCdDURP1ai5QKP+shA1r9ZQdXraD3WcBbLPKgz/RGH4xw5y26m4Of0GdgAckX/LVf4+8npKQiKBheWCIiwQnhOdeNeeSz7+bsGdSLgnPtdHKRRphYIAABchKnge4GjkAO4shjsLGH3HZZ9Ggn7UyJM+vJGpp/F484FMAdd2h71A+hGF3GYgdnYId3bhrn0E58w1ACw3wBSAst1qKypfMY4ImRM7cNzfb/H6cG3H1/H57e+HPs469Gp+gCgFxUHJE2KtQ97IbICqGXl1MNHNHwBU/eGZgwIL+4HkAw5SDylwuoDTMmy2AXA0WZwxVhJp0wUIcTy6wD8eIiqHZrf/hB93cmIL3jz7/uN+DEH5hapLHEshJFmlNEXFfG/v7yYM/VDBf74wTQAHGmwgBvgI7XOXscHtYHHEihAo+OvH2dFuEE3uohfNfABnNTw54e+TgswAFJHLGWRRWy0vAQrDaeaC3aDHw1kg9SuFSBcjdrYGTWMZnTb49A8Aip3NRgswr+pn2ER1mRM9/vT/aATGe+d9G3szbTiQbT3m9xn5/fzqeei6dmKcwcBsYuUo4LGG7gNP0NvulQfeUVzO0jDAtaYLKSeqvjTj5LYQwn4HNeeFUPkeqZM1+/VOIf3BaAFCiJKaHZtabH+Nk8aq+bfhs9tXYTCY+vvVvg0fbNTkn0NEK8C8AqBzwDwHOLzbmkbaiP6ZM5/re+i6f2467+bvTnmQCuXqNPcCmGW6kHJC0dI91IXdQPJ+hdq/ZKi6KY5r+P0/FGFmCz9mrgAhRKlNZQbghc+JHcBHF92Ir+y6AnvSE4eH7tiwMlaP+BmKnHMYegVA5zD8pQTQi6sZx/85ycBSMN3X++Dqf2w+/8bPTLnICuTqIX4ewMmmCyknFCnt3kk9REg+QKh9bTilBYicCcHFWOI76QIAev86WcQjRBWZfZwtgMczK3oQH1/8X3h84HRsGj4J+zKz0FSTifQ8tOoqYnopg1cQcDoAj8HIP02NP9334OrupvNvvCPPC1QMN+x3ngTCN5gupKwYiLbRSSD5C4XE63jSpx+GGbPrZ4gnuRJICFERFDRmRrvz/nwixtmNf8LZjS+c/9MMxm0AFzSyhsE3929Y/VTjBTdW9QylCrvo9yxRC1Nj6L6qhwjJXxIm9e+lGZw1uwCQA8nBFaKazIj2wqOyWLgf08T3DW649tiVh1VEwdfbw0OmyygvJqMpwj5C+hF1wrXlOhsWJ+FjKrI4cdSXEKJizM7j/b9BHb7y7uZ7LqvauHLl1LvPBPuUZC1PheGd3f4eQmbT8SfEOGX+4ZuztNN0DUKI0jleBLCNiPGavhkzPmm6DlNU++c+l/Z3Y5fsVp68oN/8AQrZPyuE3ePXwSFD++YbAJ3WvzBdgxCidGafIALYSkQf6/nl6ktNl2GCAgCdwp/CQ+ZvauVCD5iuAAADqd+ocV9HcNI3Hj9DIMCr+6LZKoQQpZTPFkALECm+49BD11XdbjgFAMz0x9wu06WUD91juoIRehjIPjnmIA0GwrT5p38G0Hb9F+SrSogqMnsaOwAMq1NM3+353ZoSxbzZYeTuofnRYNeJF5aJkZX44ZA9syW5Zwl68MX/rdMBYDD7/wjOUbWfAihEVal3h1DjlPXZX8uQ0XdyYXccWm1kBsDNPqqT0P7uqvlz5y3Yb7qCo3EIZP744iyATtqxBYdS2Gm6BiEKRRGjMZrBnJoUFtQNYkHdIJY19mJR/QDaaofRHE0j5tjxvWdKWzm+/x+DgIt7H7rug6brKBUXABatWzew4+o1T2c30XKvw/zTo838XfY1Sf4eQtADqJoQHNixoSPX59xuugYh8tEUzaCtJom5tcNojafRGMmhzstN6oS7dOjiYCqOg5la7E/WYPtgAzJhdZy1VmZbACdEoM/0PbTq8abzbnq4kNc9uOG6BDHP9YCEDsOtza9dZ3w12QtfmQT6ZdiD5UEXwZ0tTcB4dJIQHLCvAQCA3CaFyCmWnDyrCPM+tu6zpssQYjJiToBF9QNY0tiH+YlhxN3806vjToD5dUOYXzcEzAA0E/YMJ/DcQBM29TUjHXgFrNwu+UYAW8gF457+h1a/ovG8G3fkcwF+7FpvIOWdpkNawcQrCHQOwCeDyNEAoJTue3DVY0z4ZPN5N/24sOVP3gsNgGb+ORGtyW6WBmAi/lZYu04ityULb6klxeXgE/I8x1OIEog6IU5p6sGyxj60J4agipRarYjRUTeEjrohnNe2B0/1tOLRg7MxkIsWZTyTyi0D4HgYmMXMD/f8ctUbWv7ypk3H/VgGDT78gcUhghWscQ4RregbxpkAYqAjCwqO+fpSDKwA40d9G1b9V+P5N32EqPR3lxcagBzHH4xSxg/2kRd0Ae7sUpdiuQDIbVEn/jgTGND9QwgPROHMND9DwQPqGdM1CDGetpokzmjtxslNPfBKnH/mKY2zZhzEGa3deKq3FRv2zquo1wNlmQFwfPNI4Yneh667DRrfyNQFf8wO5XQ96lqV4rM0+BwCzul7CCuAsAkgUB4/fpnw930PrcoCN91Q+D/C8b1wR1t2+2eGAPoVAKR/74Dl+e0o2WcI2pIZ9rE4mQSCAJnfZswvXyWAe9T1pssQYrSTGvqwctkmXHHSZrykpbvkN//RFDFOb+nGNSdvxEmNfcbqKKSoyqLJM/5Kuxg8MP0tiH4VG/aSDVSbJtK7mfn7xPgXMF4PoKkA4/xzz4br3lqA60zJUY+0BP4uAOhBILfZ+K3EGpwDck9b+vehGTw0ErmvB0JwaLhOJp7ziXUbzBYhBEAELGvsxfuWbcTFC7dipRAUqgAAIABJREFUdtyuLWq1no+LO7fiTfN3wCnzgzPnRA/CwAx2JSEiuqPn4TWnlHLQoxoADoL7cPjdbeYpBS1HuQAAMn8i6KydDYAeHATrF59mgj1mtyLxoNpttAAhACyoH8RVJ23EWzq3YUY8bbqc4zq1+RAuX/xsWW8jnFN50/8mJEjrkoYRHdUAdN55cxeDfgsACIH0b5XxA+VMC7vJ2nf/nPPByaOfarJ/Mnu2c66P/tFoAaKqNUSyuGThVrx90bPW3/hH60gM4T0nPYOEV55ns1fQDgDTTqJM+NVShREdc2cj1l8/8t+DA4TME3Y++ZZEAKQetTMhkZnB/ce+c9MDIWBoJQAzccc/3Xq3kcFFVXNI49w5+3DNyRuxtKE836u3RNO4bNEWRJT5KO+pkgagkOgtvQ9f9+FSjHRMA6Cd7N0AXniszD2t4D9fnU1A+g8Kut90FRMYSoL98fcr6yFDHUsvPWVmYFHNWmMZXHHS0zh39l64ZX6y+ax4Cm/p3Fa0bYnFUqaHAFmLmD7d8+Cq1xZ7nGMagEXr1g0A+N4Lv8BA+ncEPVBdTUBuCyG3zc4/M+d86OGhCX8/PGDgCYIIlHIuKf3AoloRAS+buR9XLtuEWZYt8JuOhfUDePWcvabLmDSHNGZEDpkuo9I4AO7q2bBmXjEHGfflNjPdctT/9gnJX1TPosCgC8j8wc73/mCG7u8/7msJf0fpFxNxCulZH123reQDi6qU8HJ45+JncMHcPXCovJ/6x/OymV2YXVMeTU1r5BDcMnxtYTsCZpLS3+EfrylaatS4d7mFt33hYQI9NvrXdApI/rzym4Cwh5B60N4cBD0wCPjHv8GHB/ySLwPwe9W/lXZEUa1m16RwxdJn0J6YeBas3CliXNixvSxeBbTJ+//iYbysr0Z/rliXn/Axl0nfNPbXdJKQfMCBTto5NT5d4SEg+UsFtnQ3DqfSx6z6H5cGStkBECvd/g/r/7NkA4qq9ZKWbrxn6dOoj1T+adMz42mc1Wr/zVW2ABbd3/U8tOqqYlx44nluf+huAF1jf1kPA8mfEcK+ymoCgn0jzQ3b+nPFD6DHWfU/8ccXr5SxwgP0vRN/lBD5I2K8bt7zuLBjZ0VO+U/kZbO6rJ8FmBWxv0kpd8S4se+hNWdO9zr9v/q7poMbrku8cN3jffDOq6//ewaPe6obuUD8lRqVcHxwbjsh86gC2/oaS2vogz3gcPJTE4m3JkA1RazpMCLimW+/3dIFE+at/XGwFcAi03WUM4cYb16wHcsae02XYsQPn+/Ext7Wol1/516NoXT+P8dvWPx5LKjZVcCKxAR2OJHI2Q2v/NykvhEGHvlQc5Dxz1FKr2DQOQSsYGAWgADA7U0zZqw57kkUEZX+clbHPwrwzLG/xwGQ+pVC9BRG7Axtauv5tLAGsn9UyD5jcfEM6J6+Kd38AZRsBiA4qH5WmpFENfKUxqWdW7CgftB0KcasmNlV1AZguiQDoGQ6w1zuG8xrLyJae9Q02O5HPhSv8bNnKqhzmHkFg88Jc7klpIBxziN0AVzb19194r19269e8xECfeZ4H+POBuIv01B15TMboAcJqV8Twl6Lb/4AdF8/ODX1RLPaCxNQRf6ZwSDMevvtysQxluVCZgDyF3MCXLZoC+bWVvjK40m49elT0ZOJF+Xa05kBaPQG8f9OXlvYgsSJfApEdzP4HNJYAeIVAJ2GUaf7TgYBB044devVuTcCOO78TtAFDP1QIbuJrEzNG401kN1EGPqRsv/mPzCY180fANgv/j+E7qLvyc1fFEPMCfCOJc/Kzf+wpZaeGigBQEZ8DMxPEuM2EN4P0JmY4s0fABhwT9gAtH/uc2lm/MsJrxYCmScUhn+qEFqaCRHsA4Z/pJB5QgG2vu8/jIeGwcPJ/C9Q7LfygdJtH7rt4iKPIqqQqzTeumhLRYX7TNfSBjsjSWfHZPq/fNF3J3Wb6Lzti3eNzQWYSNhDGP6pg+T9CsExewjMCLtHMgySv3TKItGQk0noQYv3OBPB368+YboMUXkcYlzSuRXz5Mn/KLNrkog69j21zIlY8kNeTNVQ6GLtpBoAApg4/CAO7zCfjKB7ZFtd8gGFYB9K/2ogBHLbR2Ykhu93EByw/8YPAHo4Cd0//QVP5BSgmAlwEsl5H731/xZvBFGNiIA3zd+OhfVT2O5aJQjAjJh9pxvOlgyAssTgT8w498Z9k54onn/bjb8BsH6qAwVdhOQvHQze5yDzWJFfD/BI45F5TGHwuw7SjxDCQ+Vx4wcAHkqCBwqz2pmiRfpzK0Kui15enIuLanZ+226c3FSdW/0mY1bNNF4JFgEBqCtaSK0oHtrYzDO/BExx4YBWmY8qHXsTgLapDskZIPsMIfuMA1XHcGYBXivDmQGoes5vGyED4TCgDxCCgwR/H4EzeVzHAjwwCD2dd/5jRQnFmHbhg/Sbjhtu21jwC4uqdkpTD142U6aTj2dm3K4ZgPlNPpqWXIah7CH0HdyCxtyfUe/YuVhRvIigP0AXrA2AKTYAi9atG9j+vus/SMT3TKcAPUTQQ4C/deSuT1HAaQJUnEFxgGoYKgZQ7PANLCRwAHAO4DRBDzPCIYLuHzmoqLwxdN9A3qv9J0JTXhM6CQGFs9fcdm4Rriyq2Kx4Cm/s2Gm6DOvVeTnTJRzlnPaR2FQVbUVLeyuAl6N/eB+ShzZjhn4KEWVrrGo147uazr95w5H/NeXbxMLbvnDvzqs/cBcD7y5YSVkcXjB45GZ+opt6ud/0D9MaurcfnC3CN4qDgk4AkCKEO/g1hbuiEEDc9XHpwq3wVPXE++Yr7thzSImjGGfMGftzi+Al5qIxMRc+X4C+3u3QAxsxi7ZAVVF8s8WGQlf94+hfyOs5MVSZ1UrHXg1gfkHKqkLs+9A9fUBY+JW9yiv89H9wQD3Q9vH1DxX0oqLqXdSxsyoO9imEmGvPLoBTZvqojR7npk4uEi1LgZalSAfDGDy0BZHkk2hx9pWuSHEUYnx8xrk3HvUPkNdu8UXr1g0AaiWs301vJ06lobt7inLzBwCnzS3o/Z8zlG77wPrXFu6KQgCnt3RjsaX7220Ud+2ZATinfQqLrdwE6mefidii92JozjXY5ZyPQd1UvOLEeDY11vnHnPCbd1xM5/rPPwjGv06vpirDDD0wAN3XD3Dx9kU68wq3B5CIOLVPdRbsgkIAaIxm8Zq5u02XUVa0tuPVZ9zTOGVWfusRRtYLvALOwvejr/UK7MXZyHGkwBWKMZiYVtPZ6445IWZaeXELbvvifwL03elco2rkfIQHu8HDxU83c2cVaAUgEYJdfO3CG9bLZl9RMESMN3dsR8TCYBubBWzHoZtntmXhquk+wBAiibloXPBa+Auux4G6S7FfnwRtyZ+xwtzVdMGND473G9O6UxDAOwJ6H1w+FcDS6VyrUjEzMJyEHhou6lP/aJQowBoAAvR++t+2j94+5ewHIY7nzNaDmJuQpL+psqUBOLu9wGs2ZL1AMQ2GLv3TRL857a+ozjs/36+080aAJBR6DPZ96EM9I7G+Jbr5q1qFQpzPowfU83M+dNvfFKAkIV4QdwO8eo78YM+Hb8ErgOYajc7mIp41Pma9QJf7qgDkSrhAnojomIV/oxWkpZx/++e2a4VLAZRpDE+B6cPv+g8eAnJF/GYZh7c8Mu3bP6fV8Jz337agEPUIMdp5bXus2s5WToZy5t+Vr2jPlGwTtoq2om7eX7jJ+f/QlJn1rh4d79zIUHalIdltU2Nt7ubjfUDB5pQWrfvCrwFaiSmcF1BpmBmcTCE8cLAk7/rH4833pvX5FKhg1uya1gKVI8QLZsVTOL3Z0qNCy0B/znzu7lnzTDzjEcJ4R0t61ttPTc3/+3i29U17tDfjOQDSSU5swoV/oxX0pVLn+i98G8TvQ+mP/jGO02nog93Q/QOANtQDKYBq8/90YkdjW9hOF35JNmaLgrtg7m4QVd2PhoIZyJqdAVjQ5GNmreGFm+QiSJw2Lz336qWpeatVrvHVO7SKy3aSY9DXJ1r4N1rBV5V03vqlO5lwfaGvayvOZBAe7Ibu7QcCs98c0eVRQOf3A5agOLunZtnMtXdKILsouLm1w1hQV5iDrqrVgOEZgHMKvfhvmtitU37juZ3pjg+2p9uuyQaJ054ByWEEAAZDlZtw4d9oRVlWuvDWL34JxJMqoCwdnurXB7pH0vx8O2aivJPyfUIgTnaFZ7V/9ItbClqQEIe9evZe0yWUvf2paUzvTdP40b/20JHWaLb1TcuS8z/SlJ55eW8YbX+mWtcLEPCvM/5i3f7JfGwxjowBAHTe+qVP77jmAwNg3IQiNRqlxqEGkknoZMrcNP9Eompk+n+KEwAEpZM7nOWdH1v3TFHqElWvrTaJBfXy9D8dw34EQ765VwDLZ+WOH/1rDYKuWdicqVnYDA7gJp/e4w08mlJ+90IU8X5nD9rYyK3HXfg3WlH/Qjpv/eJXdl6zZkgz3Ull+pfPzEA6A06li3NoT4HEXx6b8lZDClWonvbnd/77bfJ4JormFTNl29907Umae/oHgLPn2fuzb0KH1wsEidNAwZB2h/+8wx18zFU63W66tCJh0uFq+su1k56SLvqT+YJbv/QNInoTCOXzCMAMZDLQfQPQXQeg+4p0Yl8BefOnFv/LOZWlvS1Nrf/+Nbn5i6JJeDksahgwXUbZ25dMGBt7OtG/tqiG9QLM+FrTX355Sge2leSpvPPWL9y//errX01B7qdw3Tk2HufLQThyk89kwNlcyYJ7CiFychQ8hbl/PUQH51x726wiliQEAOCMlm4oWfk/bdsGG4yNfVZBon/tcWS9QLblQqj0zt7IwCMHndyeDjDXmK5tGga14//zVD+pZNPyC9d/4cmdb3/fRUF64CEiqkMkAopEgIgHUiVeIsAM9n0g54NzOXDOL9rJfKUQOTOCybz8JwUE+9WDbR+87YLiVyWqHRHwkpYe02WUvb5sDD2ZuLHxCx79awtSE60XWASgcCeqlQCB/mWyC/9GK+l7+QV33/bEM1ddNdfryz3CQ8OnvnDLUgrkeYDngFwPcBzAUSDHBVSeswUMQIfgMASCAPBDcBgAfgAOQlRKVIG7wAO5k/izECHYrW5o+4f1nyp+VUIAnXUDqI9U6M2jhJ4bMHd0bmttiAXFjP61xTjrBbyhx10KU2WwXoA2NnLrl/P5zJIvzFt2++1DAE7beunKdUinrgEzoPXI9Ht2nNsyEchRI4+vBLAiECm8+BqBwTyyOpU0wDoEQga4HFasTl/sFTGcsJnxlZ/Zo8+Y/7H1m0tSlBAATmqsqFesxjw30Ghs7LPnZS18YVtcR9YL+I3ngnLd2cjgozvc5OZZ4NBcJzaxKS/8G83YyvzF99157ba3XXMPMsnvse9PvMSV+fAT+4tT9BPd7irjmX7yvEUeyJv4T01ECA+pTXNWrz+1hGUJASJgcX2/6TLK3kAuanQBoJnoX3twZMYL6wWc9I4eb+C33U5uz3wwm3snMwoDX22e4sK/0Yzuz190z60P9M1OzEQ89lDVtZkFEHvF8b4GicOd6jq5+QsT2mqHUetVwdRxkf3p0Axj65E7my2I/rUFKYQ1i1oyc969LNXxobjf8vq9h88jMPkXNKiV/7HpXMD43vyz161LATh/29uufAcy6fXsh+W8ErNkYufEADXOaw4i8ADtntVes4T+STL9hRmL62Tr33SFTPhzr7lzuSp28d80MUWRqztrLurOMrtegPmGfBb+jWZNQt+ie+741q7mWAvVxv9H9g0dH3mAd8o4p/4FKkxt5XfOfv9tHXKgjzCpXXL/p+25/iak/Omd7pkv26N/bXFkvUCq/fr2VNvVR/IFSvHu66kmzPzKdC9ifAZgtAvuvDMD4JId77zmDJ1K38vZ7GLTNdmo5rW1R+cUkILeR/fM+fD6y81VJcQIRYzZcTPHYVeSx7vNRXUsn5VDbaQ6FlIXSgnXCzARVtP5+S38G82qBuCIzm/e+icAS3ZceuU7wjD3JWRzLaZrsoXb4UHNoJEVj4rAfbRlVnP96fThz1XlwRfCPrPiKbjjvZ4Sk/b8UB32GFz8V5bRv7Y4vF4grFnUQpyFN7xprzv4hyz5vQtQgFl3Bu5sPu+mh6dfqKUNwBGd993xLQDf2n7pe1ex7/8f9n0bt2GUDgHx82IgAOGQ2uP2xV424x9vlKB1YZU5tcOmSyh7v+maa2zsSoj+tcWR9QK5urNA4ZB2h/68wxt63KMwNS/PSw5q5d9QqPqsbgCOWHjfV28CcNOWy6+8mrL+J5HNtpmuyYTY2fFQ99Eud6/zqjmfmt7iDyGKpSUqT4/TsTeZwK7hOmPjnzW3sqJ/bcHOuPkCs8Hh5IMeCB+b7sK/0cqiAThiybfvWA9g/XOXXf1aJ8h9hrPZ08G64jcQUiTSzxHv1rldkRvo39bJ3iphtQZJ/5uWB/fl+3BYGOfI6v+iy2+9AD/RdKB72gv/RiurBuCIpfeu/zmAMw+84+pZwzn/38n3L9EV9nqAHBUiGn2CY/j4om987Sem6xFishplBiBvm/uasdvg039rbYj5TfKMUTKj1wvoLLzkpr3O4KNp5fcvwtGn5jGDVtHb7i1o7kBZNgBHzPrW+gMArgZw9c7Lrv7LMMzegFzwSg6DmOna8kGOo+E5z7Hj3rbw1M7P09rpr/IUotRkBiA/Oe1gw16z0fNnz8tIJpshrEblC4ysF9h5ZL0AAXc0n3/Tbws9Zlk3AKMtuHf9LwH8EgB2vP3q87Xvf1gH/qsoFzTbHBJMjpvhiPOUUu7XOyl5C91798jqm+8YLkyIPDjE8GQHQF5+2zUHQ37E2PgEWf1vi9HrBVR271B86HefLMY4FdMAjNZ59/oHATwIADtWrmzkYb6aQ/030OEp7IdNxtYNEAGOk4HjbCfX2UDM6xbe97UnjdQiRBHI9r/89GTi+P1Bc/v+AWBBs49Wif61jo7O/VXzSdfvKsa1K7IBGK3zzjv7AXz28H/A55/v7pgx/0Iw/ZXWwVkIuZO0buEwjBY0dFupkFxnAErtVUpt9B31MNXSfUvuuKO7cIMIYReHpAGYKs2EHz3fiZDNBrNK9K+dmOnrxbp2xTcAY9GDDwYA/vfwf46y/bJ3n3S/xueI+Y31AGqZUAOGi5Hpsejhj/NBCMFgEFLESDJhmBhDQP9botEL9wUNf3rlvRLMI6qPIyneU/ZI1xzsS018IGopSPSvrXjQjapj7lWFUnUNwPEsvPeuZy99y+VPE/Mb87xE8oPf+kbBF2oIUS4Cbc3xImWhK1WDRw6YjzWR6F9rfaetra1oudry3SqEKJiMdo0dX1tusqGD7z+/CJrNr7s/pz1jugQxHkbRpv8BaQCEEAXEPNIEiONjAD/Z1Ym+jPkdy3FP4+SZsvffQrvmLZhXkMz/iUgDIIQoqHRg5gjbcvKb/W14pt+O7LJTZ0n0r42Y8A2i4q6qlQZACFFQhyx4qrXZlv5G/OaAucN+xjqjTab/rUT6m8UeQhoAIURBHUwV+vjzynEgXYMf7FpozTqJukiA9gaZ/rcPPdbR0bGx2KNIAyCEKKgDGbNb2mzVl43hnm1LkQsd06W8YEmDRP9aiXRRF/8dIQ2AEKKg9iVrLQ7fNmPYj+DurUuR9O1aH7GwQab/LRT4YeTbpRhIGgAhREElfQ/7DQfb2CQTurh761IM5KIn/uASmlXjoyEi541Z6P6FC2cdKMVA0gAIIQpuy0Cj6RKskA483L3lJBzK2LcuYnGjhJXaqJjRv2NJAyCEKLjn+uzY4mbSkB/BXc+dhK50jelSjqGI0Vkn0//24UE3Sj8o1WjSAAghCq4nG8fzQ3WmyzCmPxvFN7YsQ0/Wvid/AOhIZBF1JPrXQkWN/h1LGgAhRFH87sAc0yUYsT9Vg689dzL6s3a98x9Npv8tVeTo37GkARBCFMWOoQYrp7+LaXNfM7655WSkLE5DjDoa7Ymc6TLEsYoe/TuWhHYLIYrmob3tuHzxs6bLKDpmwoP75uHRg7NNl3JCC+szUIaPbSadhZPaApXdBwpTgFuHIN6JMN4JVGkyAQN3FTv6dyxpAIQQRbNjqB4be1txavMh06UUTTp08b87FmHHUL3pUibF9PS/O7wJkd4HQProV93u4O8RRmcj13oRtDfTUHXmMIVFj/4dS14BCCGK6hd72pGyLACnUHYO1eP2p5eXzc2/PhJgRtxc9K839EdED/3gmJv/EU62C7Gub0LlKrdhHB89Nn/+/E2lHlUaACFEUaVDF/+7a6EV594XSqAVHtjTgbu3noQhP2K6nElbbDD6VwX98Hp+DpwgJ5LCNKIH7wVxtjSF2aBE0b9jSQMghCi6nYP1+Onu+abLKIj9yVrc8ewpeKx7lulSpmyxwehft/83IEzuFbcK+hHp+VmRK7JGyaJ/x5I1AEKIkniyZwYaIzm8cvY+06XkJR142LBvLp7qnWHNaX5TMavGR52p6F+dg5d6ekqf4g5vRBhfiKB2eZGKssZPSxX9O5Y0AEKIknl4/1ykQhevadsFKpM3AszA5r4WPLC3A+mgfH9kmlz856WeAfTU1x5Eeu5HGJ0HdhuKUJUdiEq793+08v1qFkKUpccOzkLK93Dh/B1wS7vraUqYgaf7W/BI1xwrs/ynwnT0rzOc39H2pLOIHvoBMrPeCVAlvrHmQVYoWfTvWNIACCFKbnNfM/qyUVzYsQMz4nal0jETNvc345H9c6yN8p2qjjpz0b8UDMHJ7s77853MbniDv4ff8PICVmWNe9vb2419A0gDIIQwYn+qFnc+uxyvmLUPr5jdBcfwbEA6cPFkbyueODQD/dmY0VoKbUmDuSbLTW4CeHr/tl7fQwjj86EjFRYvXeLo37GkARBCGBMy4dddc7GpvwUvn9GFU1t6StoIMAO7k3X406EZeLa/CSFX3jRz1NGYZzD6103mN/0/GkEj2v19pOdcBajy2XZ5ArvmLZj3K5MFSAMghDCuLxPDT3YvwMNdc3HOjANY3tyDOq84N62QFZ4fqsNz/U3YMtiIZIWGFB1hMvpX5bqgct2FuZbfh0jfBuRaXl+Q65lmIvp3LGkAhBDWSPoeHtw3Dw/um4c5NUksbejHwoZ+tMbScPK8iWVDB/tTtdibTGBfMoHdyQRyoVPgyu1lcvW/m+fiv4l4Q3+Eji9EULOkoNc1wUT071jSAAghrLQ/VYv9qVo8tH8uFDFaYxnMjCfRGMki5oaIuwHiTgBFjEw48qMsGzpI+h4G/AgGslEM5CLoz8XKct9+IRiN/mUNN7m54JeNHPoxwrlXg53agl+7ZBh/mL+g9NG/Y0kDIISwnmbCwXQcB9OVsSq/VExG/zqZnaAwWfDrkk4d3hp4Ocr25EDFRhf/HVF5K16EEEIAMBz9W+Dp/9Gc9A54g48X7fpFFvhh5B7TRQDSAAghREUyGf1LnIWbeq6oY0T6NhRsgWGJGYv+HUsaACGEqECLje79fxbgIq894ADRQ98H2ND5BnkyGf07ljQAQghRYRQxOuvLL/p3qlSuG5H+h0syVmHwICs2Fv07ljQAQghRYco5+neqvIHfw0nvLNl406PuMRn9O5Y0AEIIUWHMRv9unHb079Qwoj0/BIXW3FcnxDq0ZvofkAZACCEqivno39Jvb6dgCJGeH5d83Cl6vr2z/demixhNGgAhhKggCxvMRf862f3GVua7qefgDT9pZOzJIAuif8eSBkAIISqIyel/pwAH/0xHpPdnoKDXaA0TUazuMl3DWNIACCFEhaiPBGg1Gv37tJmxj9A+ot3fB8GqB22A8Ye2zrZnTJcxljQAQghRIZYYjf7dUZTo3ynXke2C2/+I6TKOZkn071jSAAghRIVYVKHRv1MV6f81nMwu02UcYU3071jSAAghRAWo9OjfqWFEeu4v8XbECSph/MSW6N+xpAEQQogKYD76165IXuUfgpsyvCYBgFL2RP+OJQ2AEEKUuWqJ/p0qJ73NcAU8yIp/aLiICbmmCxBCCDE9801H/9rzvv0oFAwarkDd094+19qIQpkBEEKIMmd2+n8jADPBQydm9hZnW/TvWNIACCFEGavG6N/J0tE5Joe3Lvp3LGkAhBCijJmN/u0yFv07GWF8sbGxCfi6bdG/Y0kDIIQQZcxs9O9TxsY+EXYbEMbmGRtfsfqGscEnSRYBCiFEmar66N/j8BOnAaZyEQm/b1tgX/TvWDIDIIQQZcpo9G96uxXRvxMJak8xNziT1Yv/jpAGQAghypRE/45PR9vAXoup4QNfu/eaGnwqpAEQQogyZDz6N73VyNiTESRONTa2zdG/Y0kDIIQQZcjs4r9nADa09uAEGApBzcnGxrc5+ncsaQCEEKLMOIajf22e/g9rFoOdGlPDD9gc/TuW7AIQQogy01GXRcRU9G84CCez28jYkxHUmpv+B+ie9vZ51kb/jlWWDQDzWtX78MG5YJqnNGZqRZFCXft7v04uPTiQ33s1V1H8lg+tvqxQtYjy97PcHxIhe1AcIsopRMNhRNncymkGYYha0U8zsZ8WIkDUWC0if0ajf4ftjf5lFUVYs8jg+OWx+v8IUztI8tLz0HWvJE1XgOivATaa8ShEvjhkcDqETgfgwGBQGBGSkRZs816K37qXQLO8ESwHUUfjnUu7jaX/xffdCpU7ZGTsEwkSZyLb+gZTwz8/b/7cTiJD/zB5KIsZgEMbVi9TxP8PjDeNtCxl8/crxDHIIVDChUq40OkA4VAOCA0Uwoza7CG8JHs/lrsb8Hj8r/G4er2BQsRULDIe/WvnzR8AfIOr/w9H/5bVzcn6lr/3oVUXKuJHAbzJdC1CFJqKu3Bba0ARs9+KTpDDiqHv4NLcZ6Dsji+veosbJfp3PNpthI7NNTZ+OUT/jmV1A9D70HXvB+MHAOpN1yJEsZAC3OYYKOqYLgXxqqAkAAARN0lEQVQz01vwzszHAUgTYKP6SIDWmET/jmdk77/B6N9O+6N/x7K2ATi0Yc1fgelGWFyjEAVDgNsUBbnmv9zrMgfw18GXTJchxiHRvxOT6N+pM//TZhx9Gz7YqEjfjTJZoyBEQRDgNBZsQ8u0zE1uxHL+lekyxBgmo3+9pL17/w1H//qur75tavDpsLIBYMr9MwBj/5pCmEKeAtXY0fe+Mn0v5FWAPUxH/zqpLUbGngyT0b/E+MmcJXO6jRUwDdY1AL0/v7YBoDWm6xDCFCfhmS4BAOD6aZypf2G6DHGY+ehfM83HiZiO/kUZRf+OZV0DgEjkIgBx02UIYQo5BPLs+NY8Kfid6RIEJPr3eCyI/v2RqcGny46fMqMxX2S6BCFMUzHzOwIAoDG313QJAoajf4MBq6N/Q4PT/yPRv+1lE/07ln0NANFJpksQwjjHjpBOCkPEaNh0GVXPZPSvl9wEW8PXWMUQxhcbHL88V/8fYV8DwBLxK4QtDQAAtGiZBTAp6mjMS+SMjW/39P/JYDI2W/Z8e/ucX5savBDsawCARtMFCGEakT0NQAJ9pkuoaiajf1V2P8jvMTL2ZBiO/v1auUX/jmVjA2DPTz4hBMr7R1z5Mxn960r074RIU9lF/45lYwMghBACNkT/2ptuGyROg8HnxUfnLpz7rKnBC0UaACGEsNTSRpPRv9vsjv5NmIv+ZZT34r8jpAEQQghLLTK6+t/exX86OhfsNpsa3ncjVJbRv2NJAyCEEBaaXZNDwguNjD0S/bvVyNiTYTr6t62t7ZCxAgpIGgAhhLDQYoMH/zjDEv07oTKO/h1LGgAhhLCM+ehfe1f/j0T/GkuLL+vo37GkARBCCMsYj/7N7jEy9mSEidPMDc74djlH/44lDYAQQljGaPTv8EbYHf27yNj4WqmKmf4HpAEQQgirxByN9jqD0b/JTcbGPpGw1mz0b0fHnN+YGrwYpAEQQgiLLGxIgww9gaucRP9OpBKif8eSBkAIISyyxODqf5sP/tFeI3RUon8LSRoAIYSwRH0kQGvcTPQvQcMd3mxk7MkIa0+FRP8WljQAQghhiaWNBvf+p7aBdMrY+CfiJ5YbG7tSon/HkgZACCEsYTL617U6+neeRP8WgTQAQghhAaPRv9ru6F+Ti/9A/ONKif4dSxoAIYSwwJJGc0//TvJpq6N/w5plJguoyOl/QBoAIYQwziHGgrqssfFtnv4Pa5YYjf6Fgx+bGrzYpAEQQgjD5tcbjv7N2Bz9a3D6v8Kif8eSBkAIIQxbVG8y+vcpSPTv+Cot+ncsaQCEEMIg89G/9u79D2pPMRb9S8DOSov+HUsaACGEMMho9G92n9XRv4HB6X9mrrjo37GkARBCCIMk+nd82muCjrYZG1+x+qaxwUtEGgAhhDCkwXT0b+ppI2NPhuHo399VYvTvWNIACCGEIYuNRv9uBYW2Rv8SglqD0/8VGv07ljQAQghhyGKJ/h2Xjs2F9hpNDe+7EbrH1OClJA2AEEIYYD76d5uRsSdDon9LQxoAIYQwQKJ/x8dQCOMS/VsK0gAIIUSJSfTvxHSt0ejfvoyf+aGpwUtNGgAhhCixjjpz0b8q6Lc6+tfo4j/CPUuWLDHXmZWYNABCCFFiJqf/R/b+25lvYzr616mS1f9HSAMghBAlFHM05iUk+nc8Qe1yo9G/bR1tjxgZ3BDXdAGiHBDIjYGcGMirBTlRkFsDcmOAEweRAsgFKQWQA5ACKRfMGtABwBqsQwDhyP/XPjhIgoMMOEyDgzTYT4GDDAAz06JClMoio9G/ey2P/l1ubOxqiP4dSxoAcRRy41DRBlCkESraABVpBEWbQGrqXypTzvBiBgfD0NlB6Fw/dHYAnBsAZ/vBbGa7lBCFttho9O8mY2OfiET/lp40ANWMCCraDBWfARWfCad2NkhFjNZDXh0crw4O5r7468zQ2V7odDd0+iDCZBdYm5tCFSJfEv07McPRv7+thujfsaQBqDIq0gCnbh6cmjZQvBVk6H3blBBBxVqgYi1A07KRhiDXhzDZhXB4D3S6G7YuahJiNIn+nQgZPvmvevb+jyYNQBVQ0UY4dR1w6uZDRRpMlzN9R2Yuos3wmk8BwizC5F6Ew3sQJveBtZ0BJ0KYjP51LD75L4zNg3aNRf/m3Ki619TgJkkDUKHIS8BtXAy3fiHIrTFdTnE5UTj1C+HULwRrH+HQLoT9zyHM2LvYSVSfOUajfzNw0luNjD0ZJvf+A9UT/TuWNACVhAhOzSw4DUvhJtoBMvY+zRhSHtyGRXAbFkHnBhAObIc/sBUIqybbQ1hqscno39TTIEsX0jIUwpqTTJZQldP/gDQAFYGUB7dpKdzGk0e25gkAI+sd1Iwz4ba+BOHANvi9m8B+0nRZogqZjv71LJ7+17VLTUf//sjU4KZJA1DGSHlwG5fCbVludvW+5Yickb+nhsUIh3bCP7QR2h80XZaoIqajf1Vmr5GxJ0Oif82RBqAMkfL+f3v3EmtXVQZw/Ft7n9d99Ja2FKzcUqDW+AA0UdBoFHxEDVNjJBqJxODAxDiWOOhAnSjROJQYn4FoojMdSYwTNTExQS3BBxjigygvLX1w7z0PB0WipYULeM7at9/vN2zSvVbS9Jz/3Xftb0dv72uit+dVUZp+7e3sHKU5c1Zg15UxefJPsfnove4IsBB1R//+Jrr6lMysGcVk2ejfWgTADtOursfg0usv/IN981RKtGtXxWjXoRg/fizGjx0zaIi5qT7690THR/9WmkifcfTv2QTADtEM1qJ/yXXRrhyovZULRilt9PddG73dh2PzkXtjcvzB2lviAnT4osqjf8ePV1l7O+o++z/7ZrbRv2cTAF1Xmujvuzb6e1+b8lT/IpTeSgwPvCUmqwdj4++/8MQA/1dH1mq/+a+bpr09MR3W+4GmTEu60b9nEwAdVvqrMTzw1miW9tfeSgrtroOxvLw/Nh7+eUxOdvfQFDvH7uE49i3VGUx1ZvTv/VXW3o7J6jVRc/Tv+uH139davCsEQEe1a1ed+V3/i3gJDy9BO4rh+o0xfuJ3sfnIryJm3k7Ii3ek4ot/uj/6t+ab//I++//ffLt0ThPDA2+Odu2q2htJrJx5wmJpf2z+9SdPv6YYXrjDRv+ek9G/3VDn+CXnVJp+DNdv9OXfEe1oX4wuf9+F8f4EFs7o3/OrO/q3/DDr6N+zCYCOKL2lGF7+nmhX6r0Pm2cr/dUYHnpvNMuX1t4KO0zV0b8nuzv6N0ovJiuvrriBqdv/TxMAHdD012J06KZohntqb4VzKM0gRuvvinZ1vfZW2CGM/j2/yfIrYtYMay3/xFNbT/2o1uJdIwAqK73lGB58Z5RetVnYbEdpYnjZ281hYFsO1Rz9u/XPaDa6+xTLVt3Rv9/NPPr3bAKgpnYUw4PvitJfrb0TtqWJwWU3eCyT51X39v9vo7Ojf9ulmNYc/TvLPfr3bAKgktL0Y7T+DgfMdphSejG67Eb/bpzXUuXRv/0Tx6qt/Xyqj/499PKfV1m8owRAJYNLr49mtK/2Nngx2mEM1m/wIibO6aqqo3//YvTveRj9+2wCoILe7sPRrl1Zexu8BE1/LfqXvLH2NuigmqN/u3z4b9rbE9PBy6qtb/TvswmABfPFceEQcpyt9ujf1ujf8/mZ0b/PJgAWqZQYXPY2t44vIGdezbxSext0RP3Rv/XuPjy3uqN/i9G/5yQAFqi39grP+l9gStOPwf7X1d4GHVF39O9vqq39fCbDuqN/ox9G/56DAFiQ0vSjf/G1tbfBHLRrV0brQGd6B1Zqj/59oMra2zFevabi6uWH6+vrj1XcQGcJgAXp7b3asJ8LVnn6XEe132/SAUcq/vTfO3lfx0f/vqriBoz+PR8BsAjtKHp7a/4HYN6apf3RrtQ74UxdbZnFFWv1Bsz1Onz6f7J8xOjfjhIAC9C/6EiU0tbeBnPW21PzBSfUdGjXRvSbmqN//1Zl7e3YWql3+M/o3+cmAOauRO+iI7U3wQK0KweMdU6q6ujf03+Mzo7+bZaN/u0wATBnzdL+KL3l2ttgIUr01q6ovQkWrPbo32brH9XWfj7j1VdXG/0bEQ8Y/fvcBMCc9XZdXnsLLFC7erD2Fliww7vrjf7tuqqn/0v5ttG/z00AzFnj9bGpNKO9EW21A09UcLji7f+IiGmvm4+gnhn9W+/zr4xnd1dbfIcQAPPUDr01Lp0S7dIltTfBguwejuPiUZ3Rv/8xXjkSUbr3UT7ZVXXuidG/29A71x9+/ehHR7s2e68sTVn4J9kTj8+arh5oeaGa0XKc+nN3T+cyH+PjvZgcf2knwmfjWUxOdGOuQJk+HKuluzPmazq853T866/1x++eOnWoY4OASmw0qzE98WCV1U89+rdffv8zt737xfzd8Xiye3Nrc302mVW5lTdr4qF+md7zoTvufnTea/3PJ8z3jn5itWxtfi4iPhYRBpwDkNLGxkacPn0qZhV+Hi0R0ev17hv025s+fMddD81znYiI+M7RD68Nt5Z+GhGvn9diALBTTCaTePLJJ2NWowIiom2azaaZXn3rV77/h3lc/5lfHA23lr8UvvwBICIi2raN5eV6j3FPptPBrPTumdf1m4iIH3z6ln0Rs1vmtQgA7ESDwSCapt4hy/HW+OC3PnXzm+Zx7SYiYtz2r4vzHAgEgMzatu4o92k0H5zHdZuIiDJtqr2oGQC6rJTKT+S0MZcn8s4EQJl143kjAOiY2t//MZ3N5XcQ3ZseAQDMnQAAgIQEAAAkJAAAICEBAAAJCQAASEgAAEBCAgAAEhIAAJCQAACAhAQAACQkAAAgIQEAAAkJAABISAAAQEICAAASEgAAkJAAAICEBAAAJCQAACAhAQAACQkAAEhIAABAQgIAABISAACQkAAAgIQEAAAkJAAAICEBAAAJCQAASEgAAEBCAgAAEhIAAJCQAACAhAQAACQkAAAgIQEAAAkJAABISAAAQEICAAASEgAAkJAAAICEBAAAJCQAACAhAQAACQkAAEhIAABAQgIAABISAACQkAAAgIQEAAAkJAAAICEBAAAJCQAASEgAAEBCAgAAEhIAAJCQAACAhAQAACQkAAAgIQEAAAkJAABISAAAQEICAAASEgAAkJAAAICEBAAAJCQAACAhAQAACQkAAEhIAABAQgIAABISAACQkAAAgIQEAAAkJAAAICEBAAAJCQAASEgAAEBCAgAAEhIAAJCQAACAhAQAACQkAAAgIQEAAAkJAABISAAAQEICAAASEgAAkJAAAICEBAAAJCQAACAhAQAACQkAAEhIAABAQgIAABISAACQkAAAgIQEAAAkJAAAICEBAAAJCQAASEgAAEBCAgAAEhIAAJCQAACAhAQAACQkAAAgIQEAAAkJAABISAAAQEICAAASEgAAkJAAAICEBAAAJCQAACAhAQAACQkAAEhIAABAQgIAABISAACQkAAAgIQEAAAkJAAAICEBAAAJCQAASEgAAEBCAgAAEhIAAJCQAACAhAQAACQkAAAgIQEAAAkJAABISAAAQEJNRMSsxEbtjQBAF82mddcv0Zyex3XPBMC0PDiPiwPATjedTqquXyJ+NY/rNhERH/j8nfdGxP3zWAAAdqrJZBLjSb0AaNoynlzU/9pcrh0RUSJmTSmfjIi6mQMAHXL61Fzuvm/boO1/4daj33hqHtd+5hDg+z97549nJW6OKMfnsRAA7BSz2SxOnDwZW+OtansYDYZfveXLd98+r+uXs//grqMfv3gwnnxkNitvmEVcOq+FAaBrZrPxYLw53bW5tXlgOpsOFr1+U5rjpZRjW724/bYv3v3rRa8PAAAAAAAAAAAAAAAAAAAAAAAAAAAAAAAAAAAAAAAAANn9G0zqWiXpZADpAAAAAElFTkSuQmCC;" vertex="1" parent="21">
                    <mxGeometry x="40" y="40.00272727272727" width="80" height="80" as="geometry"/>
                </mxCell>
                <mxCell id="25" value="Delete" style="html=1;shadow=0;dashed=0;shape=mxgraph.bootstrap.rrect;rSize=5;strokeColor=none;strokeWidth=1;fillColor=#DB2843;fontColor=#FFFFFF;whiteSpace=wrap;align=center;verticalAlign=middle;spacingLeft=0;fontStyle=0;fontSize=16;spacing=5;labelBackgroundColor=none;" vertex="1" parent="21">
                    <mxGeometry x="650" y="43.63636363636364" width="120" height="72.72727272727272" as="geometry"/>
                </mxCell>
                <mxCell id="26" value="" style="rounded=1;whiteSpace=wrap;html=1;arcSize=7;fontColor=default;strokeWidth=16;" vertex="1" parent="1">
                    <mxGeometry x="-670" y="2564.5" width="560" height="1070" as="geometry"/>
                </mxCell>
                <mxCell id="27" value="" style="rounded=1;whiteSpace=wrap;html=1;shadow=0;fontSize=27;fontColor=#FFFFFF;strokeColor=#000000;strokeWidth=2;fillColor=#000000;gradientColor=none;arcSize=27;" vertex="1" parent="1">
                    <mxGeometry x="-550" y="2559.5" width="320" height="54" as="geometry"/>
                </mxCell>
                <mxCell id="28" value="&lt;font style=&quot;font-size: 16px&quot;&gt;draw.io&lt;/font&gt;" style="html=1;strokeWidth=1;shadow=0;dashed=0;shape=mxgraph.ios7ui.url;fillColor=#e0e0e0;strokeColor=#c0c0c0;buttonText=;strokeColor2=#222222;fontColor=#222222;fontSize=8;spacingTop=2;align=center;rounded=1;" vertex="1" parent="1">
                    <mxGeometry x="-638.5" y="2628.5" width="493.13" height="36" as="geometry"/>
                </mxCell>
                <mxCell id="29" value="" style="html=1;shadow=0;dashed=0;shape=mxgraph.bootstrap.rrect;rSize=5;fillColor=#ffffff;strokeColor=none;" vertex="1" parent="1">
                    <mxGeometry x="-589.62" y="2839.5" width="400" height="400" as="geometry"/>
                </mxCell>
                <mxCell id="30" value="&lt;font style=&quot;font-size: 40px&quot;&gt;LOGO&lt;/font&gt;" style="html=1;shadow=0;dashed=0;shape=mxgraph.bootstrap.rrect;rSize=5;strokeColor=#FFFFFF;strokeWidth=3;fillColor=none;fontColor=#00FF00;whiteSpace=wrap;align=center;verticalAlign=middle;spacingLeft=0;fontStyle=0;fontSize=16;spacing=5;rounded=1;" vertex="1" parent="1">
                    <mxGeometry x="-638.5" y="2674" width="168.5" height="85" as="geometry"/>
                </mxCell>
                <mxCell id="31" value="" style="html=1;verticalLabelPosition=bottom;align=center;labelBackgroundColor=#ffffff;verticalAlign=top;strokeWidth=2;strokeColor=#0080F0;shadow=0;dashed=0;shape=mxgraph.ios7.icons.user;fontColor=#00FF00;fillColor=#E6E6E6;" vertex="1" parent="1">
                    <mxGeometry x="-200" y="2696.5" width="40" height="40" as="geometry"/>
                </mxCell>
                <mxCell id="32" value="" style="html=1;shadow=0;dashed=0;shape=mxgraph.bootstrap.rrect;rSize=5;strokeColor=#DFDFDF;html=1;whiteSpace=wrap;fillColor=#ffffff;fontColor=#000000;verticalAlign=bottom;align=right;spacing=20;spacingBottom=50;fontSize=14;labelBackgroundColor=none;strokeWidth=3;direction=north;" vertex="1" parent="1">
                    <mxGeometry x="-629.74" y="2780" width="479.74" height="160" as="geometry"/>
                </mxCell>
                <mxCell id="33" value="Image cap" style="html=1;shadow=0;dashed=0;shape=mxgraph.bootstrap.topButton;rSize=5;perimeter=none;whiteSpace=wrap;fillColor=#E6E6E6;strokeColor=#DFDFDF;fontColor=#DEE2E6;resizeWidth=1;fontSize=18;labelBackgroundColor=none;" vertex="1" parent="32">
                    <mxGeometry width="95.948" height="160" relative="1" as="geometry">
                        <mxPoint y="-2" as="offset"/>
                    </mxGeometry>
                </mxCell>
                <mxCell id="34" value="&lt;font color=&quot;#000000&quot;&gt;&lt;font style=&quot;font-size: 40px&quot;&gt;¥ 300&lt;br&gt;&lt;/font&gt;&lt;/font&gt;&lt;span style=&quot;color: rgb(0 , 0 , 0)&quot;&gt;お菓子(ポテチ、コーラ...etc)&lt;/span&gt;" style="rounded=0;whiteSpace=wrap;html=1;shadow=1;labelBackgroundColor=none;fontSize=20;fontColor=#00FF00;strokeColor=none;strokeWidth=3;fillColor=none;gradientColor=none;align=left;verticalAlign=middle;" vertex="1" parent="32">
                    <mxGeometry x="101.94475" width="281.84725" height="160" as="geometry"/>
                </mxCell>
                <mxCell id="35" value="" style="shape=image;verticalLabelPosition=bottom;labelBackgroundColor=#ffffff;verticalAlign=top;aspect=fixed;imageAspect=0;image=data:image/png,iVBORw0KGgoAAAANSUhEUgAAAgAAAAIACAYAAAD0eNT6AAAABHNCSVQICAgIfAhkiAAAAAlwSFlzAAAOxAAADsQBlSsOGwAAABl0RVh0U29mdHdhcmUAd3d3Lmlua3NjYXBlLm9yZ5vuPBoAACAASURBVHic7N15nFxVmTfw33PuvbV0V++drZPupLMRCMgixA0HGMcNdEZAxBUDAs6QRNQZnRmZ0TjvO87o64wboISwqKgI4ui4omgAFUVBFJKwZCVrJ53eu9Z773nePzqBTqc76a6uqnOq6vl+Ps5o0n3Pk6S773PPPed3ACGEEEIIIYQQQgghhBBCCCGEEEIIIYQQQgghhBBCCCGEEEIIIYQQQgghhBBCCCGEEEIIIYQQQgghhBBCCCGEEEIIIYQQQgghhBBCCCGEEEKMRaYLEMI2g3sebYko/V4GXkrATNP1CGE37bD24xwMz+Iw22C6mqMwaXJogMl9uIaDD1Pnxf2mS7KJNABCjJLZ/+hFIL4LzI2maxGi3HBuCGGuF2A2XcoxSLk+qdp31iy88Duma7GFNABCHJbb9+jZmvSvAURN1yJEudK5Qehsr+kyxkdKc7T29LqON200XYoNlOkChLCFhv4PyM1fiGlRkXqQ8kyXMT7WSvnhV02XYQtpAIQAwD2/qwfhAtN1CFEJyI2bLmFinDvNdAm2kAZACADZTDAHgGO6DiEqArmmK5gQ69DS6YnSkwZACACkIvb+xBKi7Ni8vMy+BYqmSAMghBBCVCFpAIQQQogqJA2AEEIIUYWkARBCCCGqkDQAQgghRBWSBkAIIYSoQtIACCGEEFVIGgAhhBCiCkkDIIQQQlQhaQCEEEKIKiQNgBBCCFGFpAEQQgghqpA0AEIIIUQVkgZACCGEqELSAAghhBBVSBoAIYQQogpJAyCEEEJUIWkAhBBCiCokDYAQQghRhaQBEEIIIaqQNABCCCFEFZIGQAghhKhC0gAIIYQQVUgaACGEEKIKSQMghBBCVCFpAIQQQogqJA2AEEIIUYWkARBCCCGqkDQAQgghRBWSBkAIIYSoQtIACCGEEFVIGgAhhBCiCkkDIIQQQlQh13QBNuC1a9WeroE52vcXMJz5THomgZo1o4WAZlJwwIgDiAEAEzQBAyOfjAEm9EKjB4RuBu1hCp5XfnJX5513Zkz+uYQQQoiJVF0DsOuq1W0huSuA8CUgWg7CqTv39C4B4IEUAAZAI/+XRj6HecxFeOSjRv9vHP5YAoPYAdx67Lh6zW4Am4noKQZvCjU9tqi9eTOtXauL+ocUQgghToBMF1Bs265ZtdRh57UgnMfMLweo3WhBhEFm/IGIfsOsH+hV2d+dvW6db7Qmga88MHSKF9HfMV2HEJXAz2Qa/UyqxXQd41FEvOrNC2Km67BBxTUAW9asiXppeg2Aixl4HYAO0zUdD+WCZDg41ANX/YIp/NTie+/aarqmavRvP80u19rZaLoOISpBz4DGvu6xU6f2uO8D0Yq79+WjIl4BbFi71u3Y2/cGxfwOpOkiBjeYrmmyOOLWUkOiVh/qvRKar9z61+/sgxf5IbyaGxbfffNu0/UJIYSoTGXdAOy4dvUysLoSe3rfA2DOyK/a23VOhDwPakYrdE8v4PtN8P33AKn3bHvLu3bDjXx5IQ1/hu69NzRdpxBCiMpRdg0Ab1jr7ri7+wIVOh9gjYtQIa8xyHXgtDYj7OkF/AAAg7O5dmRzn9rmOp/c9tYrfug0x1YtWLduv+lahRBClL+yaQD23XJtjXK8L+1/+tBbKHSay+85fxIcB86MFoSHeoHcqHWBQehxkL44SGffsvWSK34H5msX/8/X5X21EEKIvFnfAOy75doaJxa52Z3J74KCO/SDCs8uIgWnpXmkCfDHbA7QmpBOvwKgp7Zd+p4/u5HYu+Z/69ZNZgoVQghRzqy9mzKvVftvX/XZSLvX783n91IcbuZxBa6GaB2l4LQ2g9yJ+jMGpzKn+4MDG7dfcsVvn3n7VW0lrU8IIUTZs7IB2H/z6it7vt89EF2Iv1c18AAg2EvIba+I1/2ToxRUazPgOBN/jGbodPrl7nBq9/a3XnEnX3bZcT5YCCGEeJFVDUDXras7u7+1amP0ZL5dNSJx5Nc5BDKPVdHN/wjHgWpuAtEJ/uxhqHQy/d5tOa9/6+Xve3tpihNCCFHOrGkA9n9lzWe8ubzVmYPlY9f1554lhENV2AAAoIgHam6a3Afn/ASGBr+17ZJ3P7714vfMLG5lQgghypnxBuDALdcu6r53zfPRZfojVHNsPTpLyG40XqZRFItC1ddN7oMZ4HT2LATBnu1vv+p9xa1MCCFEuTJ6Z917y+qPuh3es84MPWFcb/ZJAudKWZWdqC4Bik8hvjoIPD04vH7rJVf8evdlH4oXrzIhhBDlyEgDwF9cEz3w9dW/ji/lT1McEy5c00mCv7U6p/7Ho5oagAl3BoyDGUinX5XLHdy38/IrzypeZUIIIcpNyRuA7htXLT3Upvd57fyqE2X45TYTWAJwX0QKqqkRUw0/5FyuMRhO/WHb5SuvL05hQgghyk1JG4ADX17zLurEZqcVzSf6WM4AWXn6PwZFPFBD4sQfOJbWigdTn9926Xu/WfiqhBBClJuSNQD71636pLdUf13VTjzlP1r2aQXI0/+4VCIBikby+EwGp1Lv2Hbxu55+RNYFCCFEVStJA9C1fvXdkSX4OJzJzV2zBvxt8vR/PNTUAJwoH2ACnMktm+kf3LnlyitnFLgsIYQQZaLoDcDBu1b9MrKYL5/KvSp4nqCrIfJ3GshxoeryeBVwRDY3k3qz23dednVn4aoSQghRLorWAPBaqO671jzmzsMFU/3cnLz7n5xELcjz8v/8nJ8IMsnNWy9/36mFK0oIIUQ5KEoDwGuhDi1Z85QzT790qp+rB4HgoDQAk0FEoMaG6V0kCGJIJR/fcdnKMwpTlRBCiHJQlAbgwKJVjzpz9Sn5fG5uFwFc6IoqF0W8qQUEjScII2Em86jMBAghRPUoeANw4GtrfhNpx9n5fn6wq7pjf/NB9fV5Lwh8QRBGKJX6/c73yJoAIYSoBgW923Z9dfWPvA79ynw/Xw8DYW8hK6oO5Dqg2pppX4eDIB4Opp7Y8ZaVjQUoSwghhMUK1gDsW7/6vyMdfOF0ruHvkXf/+aK6BEDT/+fknN+g4T/FFhwUJYQQongK8kP+wFfWXBFdwB+aYkLtMUJZ/Jc3UqogswAAwNncvO0XX/FQQS4mhBDCStNuALpuXfNydwHfQVM4o2ZcLA3AdKlELWi6awEO40z63K2XrvxyQS5WBrSOyNJTIQqE5bupLEyrAdh3y7U1Tqv+GcV42o2EHoCE/0yXo4ACzQIAAKdTf7v9be99W8EuaLdB0wUIUSm0Nl3BxJSSfWZHTOvG7dRFH3WaUFeIQoJeeeVcCKqADQAxQ6ezd219+5XtBbuopeqH0WO6BiEqRajtnc11FQLTNdgi77tu122rv+i16YLtG9cDhbpSlXNdIDbNXIDRgtCjTO6Rwl3QTh9+G6UB9JmuQ4hK4Af2PmQ7DlKma7BFXg3Avps/8FKvnVcXshDdX8irVTcnUbhZAGBkUeC2S9+7vqAXtdPvTRcgRCVIW/w6N+LSs6ZrsMWUGwBeC+XO1vdTZLpr/o8WDtg7ZVR2olGQO6lTlycvnb5q21vf95rCXtQuRPRb0zUIUe78gJGzeQbA5YdN12CLKa/dPzh/9T1eM7cUuhCdLvQVKwABKsFQjYDbAFACUDUaFCWQxy+m/+mRvz+dBjgNcIoQzKhFsGMYeqAwq3GYmSiXuo+BZgIsXuKTP+Lwfxlqrek6hChnQ0nTFUyMCNB+5EbTddhiSo/du2+8/mW1y4Lfwi3s0z/ngMF7CvzEWqZULcObBzizGe5MBkXzuw4HjKA7DYDAWUZ4IETuiSzC6TYENbVfX3zfnVdM7yL2Wvvj8AmA5WAkIfK0bU+IlKWvABJx7PjqNdGFpuuwxZReAURnht8r9M0fANjSL5ZSoSgQOZmRuFCj7mKN2DkaXnv+N38AIJdAHgEYuY7b4aDmLTWoe1cd4n8RB2J5/jNmUu+u6JMDGbeYLkGIcpXJwtqbPwDEIvRZ0zXYZNKvALpuWf0f7kyeXYwiOFeMq9rPmcGILGVEOhgowgQIxVyw77/4CwzAYbgLHNR1JsBDjMwjGQRdU9gVo5lC3/8fAJV5aFCNWo908AGATjZdihDlZn+PvW8Ha+Oq65b3ejebrsMmk5oB2PLFNfVeB/6+aFXYu16kKJxWoOYCjcTrNSKdxbn5A4ATO86FmUEJIP66GOour4PbNoXlINncgm1vXXnd9Cu0z9oLKADoY6brEKLcDKUYwyk7f5gTAbUeXW26DttMqgGoq+NvUpy9YhXBXB07AFQto+Z8jcQbQnhzS/CN4iqQM4m/2yij5q9iSFySgIpP7q0Q57KfrtQDg9Ze6H4PwP+YrkOIcqEZ2Ndt580fAOpr6NdfXun+yHQdtjnhD/CuW1d3enOnd8rfCdk7a1QYBESXMRJv1vDmlfabhKKTm15gjOwyqH1bLWJnTyJIyA8S29+28r+mV529POWsggQDCTEpB3oYOd/OBiDiIVff7L3ZdB02OmEDQHHcXeg9/8eMUbS5BfNUAqh9Q4jY2RrTPjApn/FjUxyUGd4pLhKX10HVHr954HRm1YaVKwsYO2iPG95A+wH8g+k6hLBdKgP09Nv7FFdf617/+YtJoubGcdwG4OBn3r/Em83nFL2KCj2IzZvHSFwYwi14asLkUYSmuNnz8OdFGbVvrYHXeZzuLAi9jiH93/lXZ7e1F7q3A7jfdB1C2EozsPdgaO0yroYEPX7LFc5XTNdhq+M2AHq2e2cxtv2NRZEKWwNAQPR0Rs15GhQxXQuB3Dxf1TMj9hcxxFYc5yE/l7uK1641MLdRGi477wcwZLoOIWx0sJeRsXQXl+sgqGvxLjJdh80mvDPsvem6dm8OXlGSIiLFWwlfcgTEX8aInabzevIuBhWZxl8uM7xlLmreWDv+bwdhdOtTOz6T/wB2+5eL6HnZFSDEsdJZ4JDFU/8NdbjhC39DB0zXYbMJGwCnVt1MXoluYYcjb8sdKaDmLzQii+36piBv+ov1nRmExJvHbwLI9yt7e83v1c0AJD9ciMP4yNS/pT+262qwed0V0Yp9MCmUce8MvGGt683E60tZiFNXytGKgIDYy0YS/KxTgAYAAKiJUPumcZoA36/betnKlQUZxEJr15IGO9cAkBMrhADQ3aeRzpquYnyuS6GDSHF3rlWIce8MB7b0fIJqirfvf9xCGko5WuHFz2REFll488dILHCh5nJUM437OkD5/scLM4Kd1l5EzxHRJ0zXIYRp2RzjYJ+dP+sAoC7B/3nb1fS86TrKwbgNgNOkry11IU6rvV9QJxJZzIicYte0/1h5LwQchzODEHtl/Khf07lc5873XF2Z8cCH8aPqv0B4xHQdQpi096C2duo/Ece29VdE/8V0HeXimLvC7pv/7iVOK2aWuhB3hqVfUSfgNDHi59h98wcKsw5gNG+JC2/RqC0ODIQp/98LOohl1q4l7YTO1QAsnfwUorgO9WskLT3sx3Wgo16kpK+uy90xdwUv7nzKxOp1io2E5pQTcoGa83RZ7GAo5AwAgJEtgudGoRIvfrFwkKv4tK1/fRM9TUT/YboOIUot5zMO9Nr7oFafwH+vW0nbTNdRTo65Kzgt/BoThQAoeUzudMVO12XTtJAqQlfHfPSiwFyQ2H75Va8r/EB24Zj6d4CeMF2HEKXCAPZ2M7Slk501Mey59b3Rj5iuo9wc1QDsW3/dG5x6GIt2dcuoAXCaGN5J5VMv3CJN60SA+Ctf/JLhIFe8UyMtsfYCCsDhVQD8E36wEBWgb9Dek/4ch7k2hjearqMcHdUAOI76oKlCAMCZyaCoyQomL75Cg8roLLxJnQqYJ3eJB5U4/Jfhh68q2kAWWXtR5E8AV2wMshBH+AGj65Clj/4AGmvVV75yRXSj6TrK0dENQCMb/eFNCoh02tlljua2MZwZpquYIircVsBjMCP+upqR/+oHtTvetfLlRRrJKs1wPwHwZtN1CFFM+7oZoaX3/5oYda9bGbnOdB3l6oUGYOdNHzxZNcL4G23PshS98cROt79JOQZhpAkoEpUA3IUj0RFhBlXxDfmBCymrFP4WsPYsFCGmpX+IMZi088tbOeBYDSTrfxpeaABi8fA6G7LrnUa7twQ6MwCnxd76joeK2AAAQPzlI2sBKPQvKOpAFvn4G7xfAfia6TqEKDStga4ee3/W1deoH9767sgfTNdRzl5oAFRMW7N6O3qqvV90tuX8T0mx1yy4DHe+C/b9uXzZZabPQSwdx/koADlvXFSUrh6GH9j5szjiItve6r7ddB3l7oVbgtNI1qS4uW0Mp9l0Fccij+HNt/MbYlKKPAMAALEVcUAzbUf9W4s+mCXWvp4OEuj/mq5DiELJ5Bi9A/Y+7CTq8Im1b6aU6TrKnQKAPeuuO6PU2f/HRUDsDPu++Nw5I+E/5aoUb3hUnKFaHZAO/qYEw1mD4+omAHtN1yFEIRzsZWsXtsQjNHjre6KfNl1HJVAA4JK63HQhY7ltDHeuXV+C7my76pmqUlTPAOIrYkAYnl2C4ayx9gLKgEiOHxVlL5MDBobt/VlXU6PlUK4CGXkFEMGrDdcxrvhL2aqYXWeO6QqmpwRvAAAATquC9sP20oxmkZhaB+CQ6TKEmI7uXvtmX4+IRWlo3RWxz5uuo1IoAFAJPsl0IeNR9YzYS+z4YqQI4CTs7Yono1QneDEYbgd5m999bZm3TFOz9gLKgHm96TqEyFcQMgYs3fYHADUxdafpGiqJAgCnBk2mC5lI9BSGY8G2QFXHpXmJXkSlLD+6PIJIzrdmZ0nJaPfLAELTZQiRj54BtvaoX1dBe8POx0zXUUnUzls+OIdiNk20j0FAzbkaytgJBSOcBku/K6aAS/idrVocKA6sfLVUTGvfTLtA+LnpOoSYKgbQN2i6ionVxOkPN6+iYdN1VBIV1eHrbX+yVbVA/Fxt9gnccANSECXtYTTceqeqFgIeQRr3mK5BiKlKZ2Dtvn8AiETUF0zXUGkURfmlpouYDHc2I3a2uS9OVcbb/44o5QwAAKiFWFjSAS3BOed/AGRN1yHEVNi88j/ikX/Le9xvma6j0ihysMR0EZMVPUmbWxRo70uSSaOwtN/gTquqKemAllh7MfUDeNB0HUJMha2Z/wAQjeJPpmuoRAoOt5kuYiqiL2FETzHwhRpa/p7kRHTpgz1UTSW0TfmiX5quQIjJyvmMnG9vA+A6/D3TNVQiRR5aTBcxVbGzNGJnlnYmgLP2fnNMii59/eQBG1aurITVE1PHoTQAomwMWxyqSwQ0UkS21xaBoqj5I4DzEV3OiL9Cg4p9wM1hOlPeMwBsYmMaAwuZFxkY2bhTkt4TACxeUy3Ei4Yz9j7gxDwa/OwVdNB0HZVIQVHUdBH5iixi1L5eg+LF/+LVA2XeAASlXzvBYGC+e27JB7bA295GIRh/Nl2HEJORyZiuYGKeRztM11CplHK5rNe3Oy2MujdrRJYUtwkIB1DW8S5c4gWAR0QSdLqRgW1A0gAI+2kNZIv0/l9BY1b0IGrd/N8xOIplAWCRuHCLfkp80VEEiL9Mw51DyDxO0MkiPK0zEPaSFamEeQnN7J5gt7wWmRYU48+2Z2wIkckV57onJ7bgqvZvotEbgIbCr3pfjm/tvQQhT+2W4yo8XJwKhQu3cn5EeR0Mr42R2UzIPU1gv7B/NH/PBA0AAzpF0CkAh5+0yQEoSqAYgyIFLSMvbGiFL3lcZ2RgGzi8E7pivr1EhcoVIfyn3h3GdfPvQMwZebegoHFe8yMAgLv2vHVK13I975GCFygAAGU9/T8uF4i9hBFdxsg9S8g+q8AFer/lP0+InQlwDgj2EoKDhLCbRl4PHOd7iOIMp4ngtGp4bQynBaVNNdQMNjQDAFaemYEtQO6esn5vJKpCMdL/Tqvb/MLNf7Tzmh/BjmQHftO3YlLXIQJufAeewzsLXaEAKrEBOIwiQPQ0RmR5iGAfIbeNEO4ncJDn9dyR9QbpRxzknseUfq5zmhCkgWCfQvZJgKJAZIGGt3DkmsWmfXMnKmqu3iyAWmB30nQRQpxAEBAKnRM+N75vwt9797z7sCczB8+nT3xiuOeSDyI7joStQKpyXgCMjxTgzWPUnqdRd1mI2teOpAl6HQyVwPgJfwSoGsCdDURP1ai5QKP+shA1r9ZQdXraD3WcBbLPKgz/RGH4xw5y26m4Of0GdgAckX/LVf4+8npKQiKBheWCIiwQnhOdeNeeSz7+bsGdSLgnPtdHKRRphYIAABchKnge4GjkAO4shjsLGH3HZZ9Ggn7UyJM+vJGpp/F484FMAdd2h71A+hGF3GYgdnYId3bhrn0E58w1ACw3wBSAst1qKypfMY4ImRM7cNzfb/H6cG3H1/H57e+HPs469Gp+gCgFxUHJE2KtQ97IbICqGXl1MNHNHwBU/eGZgwIL+4HkAw5SDylwuoDTMmy2AXA0WZwxVhJp0wUIcTy6wD8eIiqHZrf/hB93cmIL3jz7/uN+DEH5hapLHEshJFmlNEXFfG/v7yYM/VDBf74wTQAHGmwgBvgI7XOXscHtYHHEihAo+OvH2dFuEE3uohfNfABnNTw54e+TgswAFJHLGWRRWy0vAQrDaeaC3aDHw1kg9SuFSBcjdrYGTWMZnTb49A8Aip3NRgswr+pn2ER1mRM9/vT/aATGe+d9G3szbTiQbT3m9xn5/fzqeei6dmKcwcBsYuUo4LGG7gNP0NvulQfeUVzO0jDAtaYLKSeqvjTj5LYQwn4HNeeFUPkeqZM1+/VOIf3BaAFCiJKaHZtabH+Nk8aq+bfhs9tXYTCY+vvVvg0fbNTkn0NEK8C8AqBzwDwHOLzbmkbaiP6ZM5/re+i6f2467+bvTnmQCuXqNPcCmGW6kHJC0dI91IXdQPJ+hdq/ZKi6KY5r+P0/FGFmCz9mrgAhRKlNZQbghc+JHcBHF92Ir+y6AnvSE4eH7tiwMlaP+BmKnHMYegVA5zD8pQTQi6sZx/85ycBSMN3X++Dqf2w+/8bPTLnICuTqIX4ewMmmCyknFCnt3kk9REg+QKh9bTilBYicCcHFWOI76QIAev86WcQjRBWZfZwtgMczK3oQH1/8X3h84HRsGj4J+zKz0FSTifQ8tOoqYnopg1cQcDoAj8HIP02NP9334OrupvNvvCPPC1QMN+x3ngTCN5gupKwYiLbRSSD5C4XE63jSpx+GGbPrZ4gnuRJICFERFDRmRrvz/nwixtmNf8LZjS+c/9MMxm0AFzSyhsE3929Y/VTjBTdW9QylCrvo9yxRC1Nj6L6qhwjJXxIm9e+lGZw1uwCQA8nBFaKazIj2wqOyWLgf08T3DW649tiVh1VEwdfbw0OmyygvJqMpwj5C+hF1wrXlOhsWJ+FjKrI4cdSXEKJizM7j/b9BHb7y7uZ7LqvauHLl1LvPBPuUZC1PheGd3f4eQmbT8SfEOGX+4ZuztNN0DUKI0jleBLCNiPGavhkzPmm6DlNU++c+l/Z3Y5fsVp68oN/8AQrZPyuE3ePXwSFD++YbAJ3WvzBdgxCidGafIALYSkQf6/nl6ktNl2GCAgCdwp/CQ+ZvauVCD5iuAAADqd+ocV9HcNI3Hj9DIMCr+6LZKoQQpZTPFkALECm+49BD11XdbjgFAMz0x9wu06WUD91juoIRehjIPjnmIA0GwrT5p38G0Hb9F+SrSogqMnsaOwAMq1NM3+353ZoSxbzZYeTuofnRYNeJF5aJkZX44ZA9syW5Zwl68MX/rdMBYDD7/wjOUbWfAihEVal3h1DjlPXZX8uQ0XdyYXccWm1kBsDNPqqT0P7uqvlz5y3Yb7qCo3EIZP744iyATtqxBYdS2Gm6BiEKRRGjMZrBnJoUFtQNYkHdIJY19mJR/QDaaofRHE0j5tjxvWdKWzm+/x+DgIt7H7rug6brKBUXABatWzew4+o1T2c30XKvw/zTo838XfY1Sf4eQtADqJoQHNixoSPX59xuugYh8tEUzaCtJom5tcNojafRGMmhzstN6oS7dOjiYCqOg5la7E/WYPtgAzJhdZy1VmZbACdEoM/0PbTq8abzbnq4kNc9uOG6BDHP9YCEDsOtza9dZ3w12QtfmQT6ZdiD5UEXwZ0tTcB4dJIQHLCvAQCA3CaFyCmWnDyrCPM+tu6zpssQYjJiToBF9QNY0tiH+YlhxN3806vjToD5dUOYXzcEzAA0E/YMJ/DcQBM29TUjHXgFrNwu+UYAW8gF457+h1a/ovG8G3fkcwF+7FpvIOWdpkNawcQrCHQOwCeDyNEAoJTue3DVY0z4ZPN5N/24sOVP3gsNgGb+ORGtyW6WBmAi/lZYu04ityULb6klxeXgE/I8x1OIEog6IU5p6sGyxj60J4agipRarYjRUTeEjrohnNe2B0/1tOLRg7MxkIsWZTyTyi0D4HgYmMXMD/f8ctUbWv7ypk3H/VgGDT78gcUhghWscQ4RregbxpkAYqAjCwqO+fpSDKwA40d9G1b9V+P5N32EqPR3lxcagBzHH4xSxg/2kRd0Ae7sUpdiuQDIbVEn/jgTGND9QwgPROHMND9DwQPqGdM1CDGetpokzmjtxslNPfBKnH/mKY2zZhzEGa3deKq3FRv2zquo1wNlmQFwfPNI4Yneh667DRrfyNQFf8wO5XQ96lqV4rM0+BwCzul7CCuAsAkgUB4/fpnw930PrcoCN91Q+D/C8b1wR1t2+2eGAPoVAKR/74Dl+e0o2WcI2pIZ9rE4mQSCAJnfZswvXyWAe9T1pssQYrSTGvqwctkmXHHSZrykpbvkN//RFDFOb+nGNSdvxEmNfcbqKKSoyqLJM/5Kuxg8MP0tiH4VG/aSDVSbJtK7mfn7xPgXMF4PoKkA4/xzz4br3lqA60zJUY+0BP4uAOhBILfZ+K3EGpwDck9b+vehGTw0ErmvB0JwaLhOJp7ziXUbzBYhBEAELGvsxfuWbcTFC7dipRAUqgAAIABJREFUdtyuLWq1no+LO7fiTfN3wCnzgzPnRA/CwAx2JSEiuqPn4TWnlHLQoxoADoL7cPjdbeYpBS1HuQAAMn8i6KydDYAeHATrF59mgj1mtyLxoNpttAAhACyoH8RVJ23EWzq3YUY8bbqc4zq1+RAuX/xsWW8jnFN50/8mJEjrkoYRHdUAdN55cxeDfgsACIH0b5XxA+VMC7vJ2nf/nPPByaOfarJ/Mnu2c66P/tFoAaKqNUSyuGThVrx90bPW3/hH60gM4T0nPYOEV55ns1fQDgDTTqJM+NVShREdc2cj1l8/8t+DA4TME3Y++ZZEAKQetTMhkZnB/ce+c9MDIWBoJQAzccc/3Xq3kcFFVXNI49w5+3DNyRuxtKE836u3RNO4bNEWRJT5KO+pkgagkOgtvQ9f9+FSjHRMA6Cd7N0AXniszD2t4D9fnU1A+g8Kut90FRMYSoL98fcr6yFDHUsvPWVmYFHNWmMZXHHS0zh39l64ZX6y+ax4Cm/p3Fa0bYnFUqaHAFmLmD7d8+Cq1xZ7nGMagEXr1g0A+N4Lv8BA+ncEPVBdTUBuCyG3zc4/M+d86OGhCX8/PGDgCYIIlHIuKf3AoloRAS+buR9XLtuEWZYt8JuOhfUDePWcvabLmDSHNGZEDpkuo9I4AO7q2bBmXjEHGfflNjPdctT/9gnJX1TPosCgC8j8wc73/mCG7u8/7msJf0fpFxNxCulZH123reQDi6qU8HJ45+JncMHcPXCovJ/6x/OymV2YXVMeTU1r5BDcMnxtYTsCZpLS3+EfrylaatS4d7mFt33hYQI9NvrXdApI/rzym4Cwh5B60N4cBD0wCPjHv8GHB/ySLwPwe9W/lXZEUa1m16RwxdJn0J6YeBas3CliXNixvSxeBbTJ+//iYbysr0Z/rliXn/Axl0nfNPbXdJKQfMCBTto5NT5d4SEg+UsFtnQ3DqfSx6z6H5cGStkBECvd/g/r/7NkA4qq9ZKWbrxn6dOoj1T+adMz42mc1Wr/zVW2ABbd3/U8tOqqYlx44nluf+huAF1jf1kPA8mfEcK+ymoCgn0jzQ3b+nPFD6DHWfU/8ccXr5SxwgP0vRN/lBD5I2K8bt7zuLBjZ0VO+U/kZbO6rJ8FmBWxv0kpd8S4se+hNWdO9zr9v/q7poMbrku8cN3jffDOq6//ewaPe6obuUD8lRqVcHxwbjsh86gC2/oaS2vogz3gcPJTE4m3JkA1RazpMCLimW+/3dIFE+at/XGwFcAi03WUM4cYb16wHcsae02XYsQPn+/Ext7Wol1/516NoXT+P8dvWPx5LKjZVcCKxAR2OJHI2Q2v/NykvhEGHvlQc5Dxz1FKr2DQOQSsYGAWgADA7U0zZqw57kkUEZX+clbHPwrwzLG/xwGQ+pVC9BRG7Axtauv5tLAGsn9UyD5jcfEM6J6+Kd38AZRsBiA4qH5WmpFENfKUxqWdW7CgftB0KcasmNlV1AZguiQDoGQ6w1zuG8xrLyJae9Q02O5HPhSv8bNnKqhzmHkFg88Jc7klpIBxziN0AVzb19194r19269e8xECfeZ4H+POBuIv01B15TMboAcJqV8Twl6Lb/4AdF8/ODX1RLPaCxNQRf6ZwSDMevvtysQxluVCZgDyF3MCXLZoC+bWVvjK40m49elT0ZOJF+Xa05kBaPQG8f9OXlvYgsSJfApEdzP4HNJYAeIVAJ2GUaf7TgYBB044devVuTcCOO78TtAFDP1QIbuJrEzNG401kN1EGPqRsv/mPzCY180fANgv/j+E7qLvyc1fFEPMCfCOJc/Kzf+wpZaeGigBQEZ8DMxPEuM2EN4P0JmY4s0fABhwT9gAtH/uc2lm/MsJrxYCmScUhn+qEFqaCRHsA4Z/pJB5QgG2vu8/jIeGwcPJ/C9Q7LfygdJtH7rt4iKPIqqQqzTeumhLRYX7TNfSBjsjSWfHZPq/fNF3J3Wb6Lzti3eNzQWYSNhDGP6pg+T9CsExewjMCLtHMgySv3TKItGQk0noQYv3OBPB368+YboMUXkcYlzSuRXz5Mn/KLNrkog69j21zIlY8kNeTNVQ6GLtpBoAApg4/CAO7zCfjKB7ZFtd8gGFYB9K/2ogBHLbR2Ykhu93EByw/8YPAHo4Cd0//QVP5BSgmAlwEsl5H731/xZvBFGNiIA3zd+OhfVT2O5aJQjAjJh9pxvOlgyAssTgT8w498Z9k54onn/bjb8BsH6qAwVdhOQvHQze5yDzWJFfD/BI45F5TGHwuw7SjxDCQ+Vx4wcAHkqCBwqz2pmiRfpzK0Kui15enIuLanZ+226c3FSdW/0mY1bNNF4JFgEBqCtaSK0oHtrYzDO/BExx4YBWmY8qHXsTgLapDskZIPsMIfuMA1XHcGYBXivDmQGoes5vGyED4TCgDxCCgwR/H4EzeVzHAjwwCD2dd/5jRQnFmHbhg/Sbjhtu21jwC4uqdkpTD142U6aTj2dm3K4ZgPlNPpqWXIah7CH0HdyCxtyfUe/YuVhRvIigP0AXrA2AKTYAi9atG9j+vus/SMT3TKcAPUTQQ4C/deSuT1HAaQJUnEFxgGoYKgZQ7PANLCRwAHAO4DRBDzPCIYLuHzmoqLwxdN9A3qv9J0JTXhM6CQGFs9fcdm4Rriyq2Kx4Cm/s2Gm6DOvVeTnTJRzlnPaR2FQVbUVLeyuAl6N/eB+ShzZjhn4KEWVrrGo147uazr95w5H/NeXbxMLbvnDvzqs/cBcD7y5YSVkcXjB45GZ+opt6ud/0D9MaurcfnC3CN4qDgk4AkCKEO/g1hbuiEEDc9XHpwq3wVPXE++Yr7thzSImjGGfMGftzi+Al5qIxMRc+X4C+3u3QAxsxi7ZAVVF8s8WGQlf94+hfyOs5MVSZ1UrHXg1gfkHKqkLs+9A9fUBY+JW9yiv89H9wQD3Q9vH1DxX0oqLqXdSxsyoO9imEmGvPLoBTZvqojR7npk4uEi1LgZalSAfDGDy0BZHkk2hx9pWuSHEUYnx8xrk3HvUPkNdu8UXr1g0AaiWs301vJ06lobt7inLzBwCnzS3o/Z8zlG77wPrXFu6KQgCnt3RjsaX7220Ud+2ZATinfQqLrdwE6mefidii92JozjXY5ZyPQd1UvOLEeDY11vnHnPCbd1xM5/rPPwjGv06vpirDDD0wAN3XD3Dx9kU68wq3B5CIOLVPdRbsgkIAaIxm8Zq5u02XUVa0tuPVZ9zTOGVWfusRRtYLvALOwvejr/UK7MXZyHGkwBWKMZiYVtPZ6445IWZaeXELbvvifwL03elco2rkfIQHu8HDxU83c2cVaAUgEYJdfO3CG9bLZl9RMESMN3dsR8TCYBubBWzHoZtntmXhquk+wBAiibloXPBa+Auux4G6S7FfnwRtyZ+xwtzVdMGND473G9O6UxDAOwJ6H1w+FcDS6VyrUjEzMJyEHhou6lP/aJQowBoAAvR++t+2j94+5ewHIY7nzNaDmJuQpL+psqUBOLu9wGs2ZL1AMQ2GLv3TRL857a+ozjs/36+080aAJBR6DPZ96EM9I7G+Jbr5q1qFQpzPowfU83M+dNvfFKAkIV4QdwO8eo78YM+Hb8ErgOYajc7mIp41Pma9QJf7qgDkSrhAnojomIV/oxWkpZx/++e2a4VLAZRpDE+B6cPv+g8eAnJF/GYZh7c8Mu3bP6fV8Jz337agEPUIMdp5bXus2s5WToZy5t+Vr2jPlGwTtoq2om7eX7jJ+f/QlJn1rh4d79zIUHalIdltU2Nt7ubjfUDB5pQWrfvCrwFaiSmcF1BpmBmcTCE8cLAk7/rH4833pvX5FKhg1uya1gKVI8QLZsVTOL3Z0qNCy0B/znzu7lnzTDzjEcJ4R0t61ttPTc3/+3i29U17tDfjOQDSSU5swoV/oxX0pVLn+i98G8TvQ+mP/jGO02nog93Q/QOANtQDKYBq8/90YkdjW9hOF35JNmaLgrtg7m4QVd2PhoIZyJqdAVjQ5GNmreGFm+QiSJw2Lz336qWpeatVrvHVO7SKy3aSY9DXJ1r4N1rBV5V03vqlO5lwfaGvayvOZBAe7Ibu7QcCs98c0eVRQOf3A5agOLunZtnMtXdKILsouLm1w1hQV5iDrqrVgOEZgHMKvfhvmtitU37juZ3pjg+2p9uuyQaJ054ByWEEAAZDlZtw4d9oRVlWuvDWL34JxJMqoCwdnurXB7pH0vx8O2aivJPyfUIgTnaFZ7V/9ItbClqQEIe9evZe0yWUvf2paUzvTdP40b/20JHWaLb1TcuS8z/SlJ55eW8YbX+mWtcLEPCvM/5i3f7JfGwxjowBAHTe+qVP77jmAwNg3IQiNRqlxqEGkknoZMrcNP9Eompk+n+KEwAEpZM7nOWdH1v3TFHqElWvrTaJBfXy9D8dw34EQ765VwDLZ+WOH/1rDYKuWdicqVnYDA7gJp/e4w08mlJ+90IU8X5nD9rYyK3HXfg3WlH/Qjpv/eJXdl6zZkgz3Ull+pfPzEA6A06li3NoT4HEXx6b8lZDClWonvbnd/77bfJ4JormFTNl29907Umae/oHgLPn2fuzb0KH1wsEidNAwZB2h/+8wx18zFU63W66tCJh0uFq+su1k56SLvqT+YJbv/QNInoTCOXzCMAMZDLQfQPQXQeg+4p0Yl8BefOnFv/LOZWlvS1Nrf/+Nbn5i6JJeDksahgwXUbZ25dMGBt7OtG/tqiG9QLM+FrTX355Sge2leSpvPPWL9y//errX01B7qdw3Tk2HufLQThyk89kwNlcyYJ7CiFychQ8hbl/PUQH51x726wiliQEAOCMlm4oWfk/bdsGG4yNfVZBon/tcWS9QLblQqj0zt7IwCMHndyeDjDXmK5tGga14//zVD+pZNPyC9d/4cmdb3/fRUF64CEiqkMkAopEgIgHUiVeIsAM9n0g54NzOXDOL9rJfKUQOTOCybz8JwUE+9WDbR+87YLiVyWqHRHwkpYe02WUvb5sDD2ZuLHxCx79awtSE60XWASgcCeqlQCB/mWyC/9GK+l7+QV33/bEM1ddNdfryz3CQ8OnvnDLUgrkeYDngFwPcBzAUSDHBVSeswUMQIfgMASCAPBDcBgAfgAOQlRKVIG7wAO5k/izECHYrW5o+4f1nyp+VUIAnXUDqI9U6M2jhJ4bMHd0bmttiAXFjP61xTjrBbyhx10KU2WwXoA2NnLrl/P5zJIvzFt2++1DAE7beunKdUinrgEzoPXI9Ht2nNsyEchRI4+vBLAiECm8+BqBwTyyOpU0wDoEQga4HFasTl/sFTGcsJnxlZ/Zo8+Y/7H1m0tSlBAATmqsqFesxjw30Ghs7LPnZS18YVtcR9YL+I3ngnLd2cjgozvc5OZZ4NBcJzaxKS/8G83YyvzF99157ba3XXMPMsnvse9PvMSV+fAT+4tT9BPd7irjmX7yvEUeyJv4T01ECA+pTXNWrz+1hGUJASJgcX2/6TLK3kAuanQBoJnoX3twZMYL6wWc9I4eb+C33U5uz3wwm3snMwoDX22e4sK/0Yzuz190z60P9M1OzEQ89lDVtZkFEHvF8b4GicOd6jq5+QsT2mqHUetVwdRxkf3p0Axj65E7my2I/rUFKYQ1i1oyc969LNXxobjf8vq9h88jMPkXNKiV/7HpXMD43vyz161LATh/29uufAcy6fXsh+W8ErNkYufEADXOaw4i8ADtntVes4T+STL9hRmL62Tr33SFTPhzr7lzuSp28d80MUWRqztrLurOMrtegPmGfBb+jWZNQt+ie+741q7mWAvVxv9H9g0dH3mAd8o4p/4FKkxt5XfOfv9tHXKgjzCpXXL/p+25/iak/Omd7pkv26N/bXFkvUCq/fr2VNvVR/IFSvHu66kmzPzKdC9ifAZgtAvuvDMD4JId77zmDJ1K38vZ7GLTNdmo5rW1R+cUkILeR/fM+fD6y81VJcQIRYzZcTPHYVeSx7vNRXUsn5VDbaQ6FlIXSgnXCzARVtP5+S38G82qBuCIzm/e+icAS3ZceuU7wjD3JWRzLaZrsoXb4UHNoJEVj4rAfbRlVnP96fThz1XlwRfCPrPiKbjjvZ4Sk/b8UB32GFz8V5bRv7Y4vF4grFnUQpyFN7xprzv4hyz5vQtQgFl3Bu5sPu+mh6dfqKUNwBGd993xLQDf2n7pe1ex7/8f9n0bt2GUDgHx82IgAOGQ2uP2xV424x9vlKB1YZU5tcOmSyh7v+maa2zsSoj+tcWR9QK5urNA4ZB2h/68wxt63KMwNS/PSw5q5d9QqPqsbgCOWHjfV28CcNOWy6+8mrL+J5HNtpmuyYTY2fFQ99Eud6/zqjmfmt7iDyGKpSUqT4/TsTeZwK7hOmPjnzW3sqJ/bcHOuPkCs8Hh5IMeCB+b7sK/0cqiAThiybfvWA9g/XOXXf1aJ8h9hrPZ08G64jcQUiTSzxHv1rldkRvo39bJ3iphtQZJ/5uWB/fl+3BYGOfI6v+iy2+9AD/RdKB72gv/RiurBuCIpfeu/zmAMw+84+pZwzn/38n3L9EV9nqAHBUiGn2CY/j4om987Sem6xFishplBiBvm/uasdvg039rbYj5TfKMUTKj1wvoLLzkpr3O4KNp5fcvwtGn5jGDVtHb7i1o7kBZNgBHzPrW+gMArgZw9c7Lrv7LMMzegFzwSg6DmOna8kGOo+E5z7Hj3rbw1M7P09rpr/IUotRkBiA/Oe1gw16z0fNnz8tIJpshrEblC4ysF9h5ZL0AAXc0n3/Tbws9Zlk3AKMtuHf9LwH8EgB2vP3q87Xvf1gH/qsoFzTbHBJMjpvhiPOUUu7XOyl5C91798jqm+8YLkyIPDjE8GQHQF5+2zUHQ37E2PgEWf1vi9HrBVR271B86HefLMY4FdMAjNZ59/oHATwIADtWrmzkYb6aQ/030OEp7IdNxtYNEAGOk4HjbCfX2UDM6xbe97UnjdQiRBHI9r/89GTi+P1Bc/v+AWBBs49Wif61jo7O/VXzSdfvKsa1K7IBGK3zzjv7AXz28H/A55/v7pgx/0Iw/ZXWwVkIuZO0buEwjBY0dFupkFxnAErtVUpt9B31MNXSfUvuuKO7cIMIYReHpAGYKs2EHz3fiZDNBrNK9K+dmOnrxbp2xTcAY9GDDwYA/vfwf46y/bJ3n3S/xueI+Y31AGqZUAOGi5Hpsejhj/NBCMFgEFLESDJhmBhDQP9botEL9wUNf3rlvRLMI6qPIyneU/ZI1xzsS018IGopSPSvrXjQjapj7lWFUnUNwPEsvPeuZy99y+VPE/Mb87xE8oPf+kbBF2oIUS4Cbc3xImWhK1WDRw6YjzWR6F9rfaetra1oudry3SqEKJiMdo0dX1tusqGD7z+/CJrNr7s/pz1jugQxHkbRpv8BaQCEEAXEPNIEiONjAD/Z1Ym+jPkdy3FP4+SZsvffQrvmLZhXkMz/iUgDIIQoqHRg5gjbcvKb/W14pt+O7LJTZ0n0r42Y8A2i4q6qlQZACFFQhyx4qrXZlv5G/OaAucN+xjqjTab/rUT6m8UeQhoAIURBHUwV+vjzynEgXYMf7FpozTqJukiA9gaZ/rcPPdbR0bGx2KNIAyCEKKgDGbNb2mzVl43hnm1LkQsd06W8YEmDRP9aiXRRF/8dIQ2AEKKg9iVrLQ7fNmPYj+DurUuR9O1aH7GwQab/LRT4YeTbpRhIGgAhREElfQ/7DQfb2CQTurh761IM5KIn/uASmlXjoyEi541Z6P6FC2cdKMVA0gAIIQpuy0Cj6RKskA483L3lJBzK2LcuYnGjhJXaqJjRv2NJAyCEKLjn+uzY4mbSkB/BXc+dhK50jelSjqGI0Vkn0//24UE3Sj8o1WjSAAghCq4nG8fzQ3WmyzCmPxvFN7YsQ0/Wvid/AOhIZBF1JPrXQkWN/h1LGgAhRFH87sAc0yUYsT9Vg689dzL6s3a98x9Npv8tVeTo37GkARBCFMWOoQYrp7+LaXNfM7655WSkLE5DjDoa7Ymc6TLEsYoe/TuWhHYLIYrmob3tuHzxs6bLKDpmwoP75uHRg7NNl3JCC+szUIaPbSadhZPaApXdBwpTgFuHIN6JMN4JVGkyAQN3FTv6dyxpAIQQRbNjqB4be1txavMh06UUTTp08b87FmHHUL3pUibF9PS/O7wJkd4HQProV93u4O8RRmcj13oRtDfTUHXmMIVFj/4dS14BCCGK6hd72pGyLACnUHYO1eP2p5eXzc2/PhJgRtxc9K839EdED/3gmJv/EU62C7Gub0LlKrdhHB89Nn/+/E2lHlUaACFEUaVDF/+7a6EV594XSqAVHtjTgbu3noQhP2K6nElbbDD6VwX98Hp+DpwgJ5LCNKIH7wVxtjSF2aBE0b9jSQMghCi6nYP1+Onu+abLKIj9yVrc8ewpeKx7lulSpmyxwehft/83IEzuFbcK+hHp+VmRK7JGyaJ/x5I1AEKIkniyZwYaIzm8cvY+06XkJR142LBvLp7qnWHNaX5TMavGR52p6F+dg5d6ekqf4g5vRBhfiKB2eZGKssZPSxX9O5Y0AEKIknl4/1ykQhevadsFKpM3AszA5r4WPLC3A+mgfH9kmlz856WeAfTU1x5Eeu5HGJ0HdhuKUJUdiEq793+08v1qFkKUpccOzkLK93Dh/B1wS7vraUqYgaf7W/BI1xwrs/ynwnT0rzOc39H2pLOIHvoBMrPeCVAlvrHmQVYoWfTvWNIACCFKbnNfM/qyUVzYsQMz4nal0jETNvc345H9c6yN8p2qjjpz0b8UDMHJ7s77853MbniDv4ff8PICVmWNe9vb2419A0gDIIQwYn+qFnc+uxyvmLUPr5jdBcfwbEA6cPFkbyueODQD/dmY0VoKbUmDuSbLTW4CeHr/tl7fQwjj86EjFRYvXeLo37GkARBCGBMy4dddc7GpvwUvn9GFU1t6StoIMAO7k3X406EZeLa/CSFX3jRz1NGYZzD6103mN/0/GkEj2v19pOdcBajy2XZ5ArvmLZj3K5MFSAMghDCuLxPDT3YvwMNdc3HOjANY3tyDOq84N62QFZ4fqsNz/U3YMtiIZIWGFB1hMvpX5bqgct2FuZbfh0jfBuRaXl+Q65lmIvp3LGkAhBDWSPoeHtw3Dw/um4c5NUksbejHwoZ+tMbScPK8iWVDB/tTtdibTGBfMoHdyQRyoVPgyu1lcvW/m+fiv4l4Q3+Eji9EULOkoNc1wUT071jSAAghrLQ/VYv9qVo8tH8uFDFaYxnMjCfRGMki5oaIuwHiTgBFjEw48qMsGzpI+h4G/AgGslEM5CLoz8XKct9+IRiN/mUNN7m54JeNHPoxwrlXg53agl+7ZBh/mL+g9NG/Y0kDIISwnmbCwXQcB9OVsSq/VExG/zqZnaAwWfDrkk4d3hp4Ocr25EDFRhf/HVF5K16EEEIAMBz9W+Dp/9Gc9A54g48X7fpFFvhh5B7TRQDSAAghREUyGf1LnIWbeq6oY0T6NhRsgWGJGYv+HUsaACGEqECLje79fxbgIq894ADRQ98H2ND5BnkyGf07ljQAQghRYRQxOuvLL/p3qlSuG5H+h0syVmHwICs2Fv07ljQAQghRYco5+neqvIHfw0nvLNl406PuMRn9O5Y0AEIIUWHMRv9unHb079Qwoj0/BIXW3FcnxDq0ZvofkAZACCEqivno39Jvb6dgCJGeH5d83Cl6vr2z/demixhNGgAhhKggCxvMRf862f3GVua7qefgDT9pZOzJIAuif8eSBkAIISqIyel/pwAH/0xHpPdnoKDXaA0TUazuMl3DWNIACCFEhaiPBGg1Gv37tJmxj9A+ot3fB8GqB22A8Ye2zrZnTJcxljQAQghRIZYYjf7dUZTo3ynXke2C2/+I6TKOZkn071jSAAghRIVYVKHRv1MV6f81nMwu02UcYU3071jSAAghRAWo9OjfqWFEeu4v8XbECSph/MSW6N+xpAEQQogKYD76165IXuUfgpsyvCYBgFL2RP+OJQ2AEEKUuWqJ/p0qJ73NcAU8yIp/aLiICbmmCxBCCDE9801H/9rzvv0oFAwarkDd094+19qIQpkBEEKIMmd2+n8jADPBQydm9hZnW/TvWNIACCFEGavG6N/J0tE5Joe3Lvp3LGkAhBCijJmN/u0yFv07GWF8sbGxCfi6bdG/Y0kDIIQQZcxs9O9TxsY+EXYbEMbmGRtfsfqGscEnSRYBCiFEmar66N/j8BOnAaZyEQm/b1tgX/TvWDIDIIQQZcpo9G96uxXRvxMJak8xNziT1Yv/jpAGQAghypRE/45PR9vAXoup4QNfu/eaGnwqpAEQQogyZDz6N73VyNiTESRONTa2zdG/Y0kDIIQQZcjs4r9nADa09uAEGApBzcnGxrc5+ncsaQCEEKLMOIajf22e/g9rFoOdGlPDD9gc/TuW7AIQQogy01GXRcRU9G84CCez28jYkxHUmpv+B+ie9vZ51kb/jlWWDQDzWtX78MG5YJqnNGZqRZFCXft7v04uPTiQ33s1V1H8lg+tvqxQtYjy97PcHxIhe1AcIsopRMNhRNncymkGYYha0U8zsZ8WIkDUWC0if0ajf4ftjf5lFUVYs8jg+OWx+v8IUztI8tLz0HWvJE1XgOivATaa8ShEvjhkcDqETgfgwGBQGBGSkRZs816K37qXQLO8ESwHUUfjnUu7jaX/xffdCpU7ZGTsEwkSZyLb+gZTwz8/b/7cTiJD/zB5KIsZgEMbVi9TxP8PjDeNtCxl8/crxDHIIVDChUq40OkA4VAOCA0Uwoza7CG8JHs/lrsb8Hj8r/G4er2BQsRULDIe/WvnzR8AfIOr/w9H/5bVzcn6lr/3oVUXKuJHAbzJdC1CFJqKu3Bba0ARs9+KTpDDiqHv4NLcZ6Dsji+veosbJfp3PNpthI7NNTZ+OUT/jmV1A9D70HXvB+MHAOpN1yJEsZAC3OYYKOqYLgXxqqAkAAARN0lEQVQz01vwzszHAUgTYKP6SIDWmET/jmdk77/B6N9O+6N/x7K2ATi0Yc1fgelGWFyjEAVDgNsUBbnmv9zrMgfw18GXTJchxiHRvxOT6N+pM//TZhx9Gz7YqEjfjTJZoyBEQRDgNBZsQ8u0zE1uxHL+lekyxBgmo3+9pL17/w1H//qur75tavDpsLIBYMr9MwBj/5pCmEKeAtXY0fe+Mn0v5FWAPUxH/zqpLUbGngyT0b/E+MmcJXO6jRUwDdY1AL0/v7YBoDWm6xDCFCfhmS4BAOD6aZypf2G6DHGY+ehfM83HiZiO/kUZRf+OZV0DgEjkIgBx02UIYQo5BPLs+NY8Kfid6RIEJPr3eCyI/v2RqcGny46fMqMxX2S6BCFMUzHzOwIAoDG313QJAoajf4MBq6N/Q4PT/yPRv+1lE/07ln0NANFJpksQwjjHjpBOCkPEaNh0GVXPZPSvl9wEW8PXWMUQxhcbHL88V/8fYV8DwBLxK4QtDQAAtGiZBTAp6mjMS+SMjW/39P/JYDI2W/Z8e/ucX5savBDsawCARtMFCGEakT0NQAJ9pkuoaiajf1V2P8jvMTL2ZBiO/v1auUX/jmVjA2DPTz4hBMr7R1z5Mxn960r074RIU9lF/45lYwMghBACNkT/2ptuGyROg8HnxUfnLpz7rKnBC0UaACGEsNTSRpPRv9vsjv5NmIv+ZZT34r8jpAEQQghLLTK6+t/exX86OhfsNpsa3ncjVJbRv2NJAyCEEBaaXZNDwguNjD0S/bvVyNiTYTr6t62t7ZCxAgpIGgAhhLDQYoMH/zjDEv07oTKO/h1LGgAhhLCM+ehfe1f/j0T/GkuLL+vo37GkARBCCMsYj/7N7jEy9mSEidPMDc74djlH/44lDYAQQljGaPTv8EbYHf27yNj4WqmKmf4HpAEQQgirxByN9jqD0b/JTcbGPpGw1mz0b0fHnN+YGrwYpAEQQgiLLGxIgww9gaucRP9OpBKif8eSBkAIISyyxODqf5sP/tFeI3RUon8LSRoAIYSwRH0kQGvcTPQvQcMd3mxk7MkIa0+FRP8WljQAQghhiaWNBvf+p7aBdMrY+CfiJ5YbG7tSon/HkgZACCEsYTL617U6+neeRP8WgTQAQghhAaPRv9ru6F+Ti/9A/ONKif4dSxoAIYSwwJJGc0//TvJpq6N/w5plJguoyOl/QBoAIYQwziHGgrqssfFtnv4Pa5YYjf6Fgx+bGrzYpAEQQgjD5tcbjv7N2Bz9a3D6v8Kif8eSBkAIIQxbVG8y+vcpSPTv+Cot+ncsaQCEEMIg89G/9u79D2pPMRb9S8DOSov+HUsaACGEMMho9G92n9XRv4HB6X9mrrjo37GkARBCCIMk+nd82muCjrYZG1+x+qaxwUtEGgAhhDCkwXT0b+ppI2NPhuHo399VYvTvWNIACCGEIYuNRv9uBYW2Rv8SglqD0/8VGv07ljQAQghhyGKJ/h2Xjs2F9hpNDe+7EbrH1OClJA2AEEIYYD76d5uRsSdDon9LQxoAIYQwQKJ/x8dQCOMS/VsK0gAIIUSJSfTvxHSt0ejfvoyf+aGpwUtNGgAhhCixjjpz0b8q6Lc6+tfo4j/CPUuWLDHXmZWYNABCCFFiJqf/R/b+25lvYzr616mS1f9HSAMghBAlFHM05iUk+nc8Qe1yo9G/bR1tjxgZ3BDXdAGiHBDIjYGcGMirBTlRkFsDcmOAEweRAsgFKQWQA5ACKRfMGtABwBqsQwDhyP/XPjhIgoMMOEyDgzTYT4GDDAAz06JClMoio9G/ey2P/l1ubOxqiP4dSxoAcRRy41DRBlCkESraABVpBEWbQGrqXypTzvBiBgfD0NlB6Fw/dHYAnBsAZ/vBbGa7lBCFttho9O8mY2OfiET/lp40ANWMCCraDBWfARWfCad2NkhFjNZDXh0crw4O5r7468zQ2V7odDd0+iDCZBdYm5tCFSJfEv07McPRv7+thujfsaQBqDIq0gCnbh6cmjZQvBVk6H3blBBBxVqgYi1A07KRhiDXhzDZhXB4D3S6G7YuahJiNIn+nQgZPvmvevb+jyYNQBVQ0UY4dR1w6uZDRRpMlzN9R2Yuos3wmk8BwizC5F6Ew3sQJveBtZ0BJ0KYjP51LD75L4zNg3aNRf/m3Ki619TgJkkDUKHIS8BtXAy3fiHIrTFdTnE5UTj1C+HULwRrH+HQLoT9zyHM2LvYSVSfOUajfzNw0luNjD0ZJvf+A9UT/TuWNACVhAhOzSw4DUvhJtoBMvY+zRhSHtyGRXAbFkHnBhAObIc/sBUIqybbQ1hqscno39TTIEsX0jIUwpqTTJZQldP/gDQAFYGUB7dpKdzGk0e25gkAI+sd1Iwz4ba+BOHANvi9m8B+0nRZogqZjv71LJ7+17VLTUf//sjU4KZJA1DGSHlwG5fCbVludvW+5Yickb+nhsUIh3bCP7QR2h80XZaoIqajf1Vmr5GxJ0Oif82RBqAMkfL+f3v3EmtXVQZw/Ft7n9d99Ja2FKzcUqDW+AA0UdBoFHxEDVNjJBqJxODAxDiWOOhAnSjROJQYn4FoojMdSYwTNTExQS3BBxjigygvLX1w7z0PB0WipYULeM7at9/vN2zSvVbS9Jz/3Xftb0dv72uit+dVUZp+7e3sHKU5c1Zg15UxefJPsfnove4IsBB1R//+Jrr6lMysGcVk2ejfWgTADtOursfg0usv/IN981RKtGtXxWjXoRg/fizGjx0zaIi5qT7690THR/9WmkifcfTv2QTADtEM1qJ/yXXRrhyovZULRilt9PddG73dh2PzkXtjcvzB2lviAnT4osqjf8ePV1l7O+o++z/7ZrbRv2cTAF1Xmujvuzb6e1+b8lT/IpTeSgwPvCUmqwdj4++/8MQA/1dH1mq/+a+bpr09MR3W+4GmTEu60b9nEwAdVvqrMTzw1miW9tfeSgrtroOxvLw/Nh7+eUxOdvfQFDvH7uE49i3VGUx1ZvTv/VXW3o7J6jVRc/Tv+uH139davCsEQEe1a1ed+V3/i3gJDy9BO4rh+o0xfuJ3sfnIryJm3k7Ii3ek4ot/uj/6t+ab//I++//ffLt0ThPDA2+Odu2q2htJrJx5wmJpf2z+9SdPv6YYXrjDRv+ek9G/3VDn+CXnVJp+DNdv9OXfEe1oX4wuf9+F8f4EFs7o3/OrO/q3/DDr6N+zCYCOKL2lGF7+nmhX6r0Pm2cr/dUYHnpvNMuX1t4KO0zV0b8nuzv6N0ovJiuvrriBqdv/TxMAHdD012J06KZohntqb4VzKM0gRuvvinZ1vfZW2CGM/j2/yfIrYtYMay3/xFNbT/2o1uJdIwAqK73lGB58Z5RetVnYbEdpYnjZ281hYFsO1Rz9u/XPaDa6+xTLVt3Rv9/NPPr3bAKgpnYUw4PvitJfrb0TtqWJwWU3eCyT51X39v9vo7Ojf9ulmNYc/TvLPfr3bAKgktL0Y7T+DgfMdphSejG67Eb/bpzXUuXRv/0Tx6qt/Xyqj/499PKfV1m8owRAJYNLr49mtK/2Nngx2mEM1m/wIibO6aqqo3//YvTveRj9+2wCoILe7sPRrl1Zexu8BE1/LfqXvLH2NuigmqN/u3z4b9rbE9PBy6qtb/TvswmABfPFceEQcpyt9ujf1ujf8/mZ0b/PJgAWqZQYXPY2t44vIGdezbxSext0RP3Rv/XuPjy3uqN/i9G/5yQAFqi39grP+l9gStOPwf7X1d4GHVF39O9vqq39fCbDuqN/ox9G/56DAFiQ0vSjf/G1tbfBHLRrV0brQGd6B1Zqj/59oMra2zFevabi6uWH6+vrj1XcQGcJgAXp7b3asJ8LVnn6XEe132/SAUcq/vTfO3lfx0f/vqriBoz+PR8BsAjtKHp7a/4HYN6apf3RrtQ74UxdbZnFFWv1Bsz1Onz6f7J8xOjfjhIAC9C/6EiU0tbeBnPW21PzBSfUdGjXRvSbmqN//1Zl7e3YWql3+M/o3+cmAOauRO+iI7U3wQK0KweMdU6q6ujf03+Mzo7+bZaN/u0wATBnzdL+KL3l2ttgIUr01q6ovQkWrPbo32brH9XWfj7j1VdXG/0bEQ8Y/fvcBMCc9XZdXnsLLFC7erD2Fliww7vrjf7tuqqn/0v5ttG/z00AzFnj9bGpNKO9EW21A09UcLji7f+IiGmvm4+gnhn9W+/zr4xnd1dbfIcQAPPUDr01Lp0S7dIltTfBguwejuPiUZ3Rv/8xXjkSUbr3UT7ZVXXuidG/29A71x9+/ehHR7s2e68sTVn4J9kTj8+arh5oeaGa0XKc+nN3T+cyH+PjvZgcf2knwmfjWUxOdGOuQJk+HKuluzPmazq853T866/1x++eOnWoY4OASmw0qzE98WCV1U89+rdffv8zt737xfzd8Xiye3Nrc302mVW5lTdr4qF+md7zoTvufnTea/3PJ8z3jn5itWxtfi4iPhYRBpwDkNLGxkacPn0qZhV+Hi0R0ev17hv025s+fMddD81znYiI+M7RD68Nt5Z+GhGvn9diALBTTCaTePLJJ2NWowIiom2azaaZXn3rV77/h3lc/5lfHA23lr8UvvwBICIi2raN5eV6j3FPptPBrPTumdf1m4iIH3z6ln0Rs1vmtQgA7ESDwSCapt4hy/HW+OC3PnXzm+Zx7SYiYtz2r4vzHAgEgMzatu4o92k0H5zHdZuIiDJtqr2oGQC6rJTKT+S0MZcn8s4EQJl143kjAOiY2t//MZ3N5XcQ3ZseAQDMnQAAgIQEAAAkJAAAICEBAAAJCQAASEgAAEBCAgAAEhIAAJCQAACAhAQAACQkAAAgIQEAAAkJAABISAAAQEICAAASEgAAkJAAAICEBAAAJCQAACAhAQAACQkAAEhIAABAQgIAABISAACQkAAAgIQEAAAkJAAAICEBAAAJCQAASEgAAEBCAgAAEhIAAJCQAACAhAQAACQkAAAgIQEAAAkJAABISAAAQEICAAASEgAAkJAAAICEBAAAJCQAACAhAQAACQkAAEhIAABAQgIAABISAACQkAAAgIQEAAAkJAAAICEBAAAJCQAASEgAAEBCAgAAEhIAAJCQAACAhAQAACQkAAAgIQEAAAkJAABISAAAQEICAAASEgAAkJAAAICEBAAAJCQAACAhAQAACQkAAEhIAABAQgIAABISAACQkAAAgIQEAAAkJAAAICEBAAAJCQAASEgAAEBCAgAAEhIAAJCQAACAhAQAACQkAAAgIQEAAAkJAABISAAAQEICAAASEgAAkJAAAICEBAAAJCQAACAhAQAACQkAAEhIAABAQgIAABISAACQkAAAgIQEAAAkJAAAICEBAAAJCQAASEgAAEBCAgAAEhIAAJCQAACAhAQAACQkAAAgIQEAAAkJAABISAAAQEICAAASEgAAkJAAAICEBAAAJCQAACAhAQAACQkAAEhIAABAQgIAABISAACQkAAAgIQEAAAkJAAAICEBAAAJCQAASEgAAEBCAgAAEhIAAJCQAACAhAQAACQkAAAgIQEAAAkJAABISAAAQEJNRMSsxEbtjQBAF82mddcv0Zyex3XPBMC0PDiPiwPATjedTqquXyJ+NY/rNhERH/j8nfdGxP3zWAAAdqrJZBLjSb0AaNoynlzU/9pcrh0RUSJmTSmfjIi6mQMAHXL61Fzuvm/boO1/4daj33hqHtd+5hDg+z97549nJW6OKMfnsRAA7BSz2SxOnDwZW+OtansYDYZfveXLd98+r+uXs//grqMfv3gwnnxkNitvmEVcOq+FAaBrZrPxYLw53bW5tXlgOpsOFr1+U5rjpZRjW724/bYv3v3rRa8PAAAAAAAAAAAAAAAAAAAAAAAAAAAAAAAAAAAAAAAAANn9G0zqWiXpZADpAAAAAElFTkSuQmCC;" vertex="1" parent="32">
                    <mxGeometry x="9.736999999999998" y="40.00272727272727" width="80" height="80" as="geometry"/>
                </mxCell>
                <mxCell id="36" value="Delete" style="html=1;shadow=0;dashed=0;shape=mxgraph.bootstrap.rrect;rSize=5;strokeColor=none;strokeWidth=1;fillColor=#DB2843;fontColor=#FFFFFF;whiteSpace=wrap;align=center;verticalAlign=middle;spacingLeft=0;fontStyle=0;fontSize=16;spacing=5;labelBackgroundColor=none;" vertex="1" parent="32">
                    <mxGeometry x="389.78875" y="43.63636363636364" width="71.961" height="72.72727272727272" as="geometry"/>
                </mxCell>
                <mxCell id="37" value="" style="html=1;shadow=0;dashed=0;shape=mxgraph.bootstrap.rrect;rSize=5;fillColor=none;strokeColor=#999999;labelBackgroundColor=none;fontSize=16;fontColor=#000000;" vertex="1" parent="1">
                    <mxGeometry x="-630" y="2977" width="480" height="340" as="geometry"/>
                </mxCell>
                <mxCell id="38" value="今日の日付" style="html=1;shadow=0;dashed=0;shape=mxgraph.bootstrap.rrect;rSize=5;fillColor=default;strokeColor=#808080;align=left;spacing=15;fontSize=16;fontColor=#6C767D;labelBackgroundColor=none;" vertex="1" parent="37">
                    <mxGeometry width="340" height="80" relative="1" as="geometry">
                        <mxPoint x="27" y="30" as="offset"/>
                    </mxGeometry>
                </mxCell>
                <mxCell id="39" value="カテゴリー選択" style="html=1;shadow=0;dashed=0;shape=mxgraph.bootstrap.rrect;rSize=5;strokeColor=#808080;strokeWidth=1;fillColor=#ffffff;fontColor=#777777;whiteSpace=wrap;align=left;verticalAlign=middle;fontStyle=0;fontSize=16;spacing=20;labelBackgroundColor=none;" vertex="1" parent="37">
                    <mxGeometry x="27.426835443037977" y="136.82756097560974" width="192" height="80" as="geometry"/>
                </mxCell>
                <mxCell id="40" value="" style="shape=triangle;direction=south;fillColor=#495057;strokeColor=none;perimeter=none;shadow=0;labelBackgroundColor=none;fontSize=16;fontColor=#000000;" vertex="1" parent="39">
                    <mxGeometry x="1" y="0.5" width="10" height="5" relative="1" as="geometry">
                        <mxPoint x="-17" y="-2.5" as="offset"/>
                    </mxGeometry>
                </mxCell>
                <mxCell id="41" value="🗓" style="html=1;shadow=1;dashed=0;shape=mxgraph.bootstrap.rrect;rSize=5;strokeColor=#808080;strokeWidth=1;fillColor=#E6E6E6;fontColor=#343A40;whiteSpace=wrap;align=center;verticalAlign=middle;spacingLeft=0;fontStyle=0;fontSize=32;spacing=5;labelBackgroundColor=none;" vertex="1" parent="37">
                    <mxGeometry x="380.00341772151904" y="30.000975609756097" width="80" height="80" as="geometry"/>
                </mxCell>
                <mxCell id="42" value="金額" style="html=1;shadow=0;dashed=0;shape=mxgraph.bootstrap.rrect;rSize=5;fillColor=default;strokeColor=#808080;align=left;spacing=15;fontSize=16;fontColor=#6C767D;labelBackgroundColor=none;" vertex="1" parent="37">
                    <mxGeometry width="220" height="80" relative="1" as="geometry">
                        <mxPoint x="240" y="137" as="offset"/>
                    </mxGeometry>
                </mxCell>
                <mxCell id="43" value="Success" style="html=1;shadow=0;dashed=0;shape=mxgraph.bootstrap.rrect;rSize=5;strokeColor=none;strokeWidth=1;fillColor=#33A64C;fontColor=#FFFFFF;whiteSpace=wrap;align=center;verticalAlign=middle;spacingLeft=0;fontStyle=0;fontSize=16;spacing=5;labelBackgroundColor=none;" vertex="1" parent="37">
                    <mxGeometry x="168" y="270" width="144" height="40" as="geometry"/>
                </mxCell>
            </root>
        </mxGraphModel>
    </diagram>
</mxfile>